<?xml version="1.0" encoding="utf-8"?>
<!-- Generator: Adobe Illustrator 16.0.0, SVG Export Plug-In . SVG Version: 6.00 Build 0)  -->
<!DOCTYPE svg PUBLIC "-//W3C//DTD SVG 1.1//EN" "http://www.w3.org/Graphics/SVG/1.1/DTD/svg11.dtd">
<svg version="1.1" id="Layer_1" xmlns="http://www.w3.org/2000/svg" xmlns:xlink="http://www.w3.org/1999/xlink" x="0px" y="0px"
	 width="41.009px" height="68.99px" viewBox="0 0 41.009 68.99" enable-background="new 0 0 41.009 68.99" xml:space="preserve">
<g>
	<defs>
		<rect id="SVGID_1_" width="41.009" height="68.99"/>
	</defs>
	<clipPath id="SVGID_2_">
		<use xlink:href="#SVGID_1_"  overflow="visible"/>
	</clipPath>
	<path clip-path="url(#SVGID_2_)" fill="#FFFFFF" d="M32.164,1.558C33.175,0.519,34.502,0,35.828,0c1.324,0,2.652,0.519,3.662,1.558
		c2.024,2.077,2.024,5.444,0,7.521L14.656,34.568l24.691,25.344c2.024,2.076,2.024,5.443,0,7.52c-2.022,2.078-5.305,2.078-7.327,0
		L0,34.568L32.164,1.558z"/>
	<path clip-path="url(#SVGID_2_)" fill="#FFFFFF" d="M39.347,67.433c2.024-2.077,2.024-5.444,0-7.521L14.656,34.569L39.49,9.078
		c2.024-2.076,2.024-5.444,0-7.52C38.48,0.52,37.152,0,35.828,0c-1.326,0-2.653,0.52-3.664,1.559L0,34.569l32.02,32.863
		C34.042,69.509,37.324,69.509,39.347,67.433"/>
</g>
</svg>
