<?xml version="1.0" encoding="utf-8"?>
<!-- Generator: Adobe Illustrator 16.0.0, SVG Export Plug-In . SVG Version: 6.00 Build 0)  -->
<!DOCTYPE svg PUBLIC "-//W3C//DTD SVG 1.1//EN" "http://www.w3.org/Graphics/SVG/1.1/DTD/svg11.dtd">
<svg version="1.1" id="Layer_1" xmlns="http://www.w3.org/2000/svg" xmlns:xlink="http://www.w3.org/1999/xlink" x="0px" y="0px"
	 width="41.009px" height="68.99px" viewBox="0 0 41.009 68.99" enable-background="new 0 0 41.009 68.99" xml:space="preserve">
<g>
	<defs>
		<rect id="SVGID_1_" width="41.009" height="68.99"/>
	</defs>
	<clipPath id="SVGID_2_">
		<use xlink:href="#SVGID_1_"  overflow="visible"/>
	</clipPath>
	<path clip-path="url(#SVGID_2_)" fill="#FFFFFF" d="M8.845,67.433c-1.011,1.038-2.338,1.558-3.664,1.558
		c-1.325,0-2.652-0.52-3.663-1.558c-2.024-2.077-2.024-5.444,0-7.521l24.835-25.49L1.662,9.078c-2.024-2.076-2.024-5.444,0-7.52
		c2.022-2.078,5.305-2.078,7.327,0L41.01,34.421L8.845,67.433z"/>
	<path clip-path="url(#SVGID_2_)" fill="#FFFFFF" d="M1.662,1.558c-2.024,2.077-2.024,5.444,0,7.521l24.691,25.342L1.518,59.912
		c-2.024,2.076-2.024,5.443,0,7.52c1.011,1.039,2.338,1.559,3.663,1.559c1.326,0,2.653-0.52,3.664-1.559L41.01,34.421L8.989,1.558
		C6.967-0.52,3.684-0.52,1.662,1.558"/>
</g>
</svg>
