<?xml version="1.0" encoding="utf-8"?>
<!-- Generator: Adobe Illustrator 16.0.0, SVG Export Plug-In . SVG Version: 6.00 Build 0)  -->
<!DOCTYPE svg PUBLIC "-//W3C//DTD SVG 1.1//EN" "http://www.w3.org/Graphics/SVG/1.1/DTD/svg11.dtd">
<svg version="1.1" id="Layer_1" xmlns="http://www.w3.org/2000/svg" xmlns:xlink="http://www.w3.org/1999/xlink" x="0px" y="0px"
	 width="23.553px" height="14px" viewBox="0 0 23.553 14" enable-background="new 0 0 23.553 14" xml:space="preserve">
<g>
	<defs>
		<rect id="SVGID_1_" width="23.553" height="14"/>
	</defs>
	<clipPath id="SVGID_2_">
		<use xlink:href="#SVGID_1_"  overflow="visible"/>
	</clipPath>
	<path clip-path="url(#SVGID_2_)" fill="#FFFFFF" d="M0.532,3.02C0.177,2.674,0,2.222,0,1.769c0-0.452,0.177-0.905,0.532-1.25
		c0.709-0.692,1.859-0.692,2.568,0l8.702,8.477l8.652-8.429c0.71-0.69,1.858-0.69,2.567,0c0.71,0.69,0.71,1.811,0,2.501L11.801,14
		L0.532,3.02z"/>
	<path clip-path="url(#SVGID_2_)" fill="#FFFFFF" d="M23.021,0.567c-0.709-0.691-1.858-0.691-2.567,0l-8.651,8.429L3.1,0.518
		c-0.709-0.691-1.859-0.691-2.568,0C0.177,0.863,0,1.316,0,1.769C0,2.222,0.177,2.674,0.531,3.02L11.802,14L23.021,3.069
		C23.729,2.378,23.729,1.258,23.021,0.567"/>
</g>
</svg>
