<?xml version="1.0" encoding="utf-8"?>
<!-- Generator: Adobe Illustrator 16.0.0, SVG Export Plug-In . SVG Version: 6.00 Build 0)  -->
<!DOCTYPE svg PUBLIC "-//W3C//DTD SVG 1.1//EN" "http://www.w3.org/Graphics/SVG/1.1/DTD/svg11.dtd">
<svg version="1.1" id="Layer_1" xmlns="http://www.w3.org/2000/svg" xmlns:xlink="http://www.w3.org/1999/xlink" x="0px" y="0px"
	 width="23.553px" height="14px" viewBox="0 0 23.553 14" enable-background="new 0 0 23.553 14" xml:space="preserve">
<g>
	<defs>
		<rect id="SVGID_1_" width="23.553" height="14"/>
	</defs>
	<clipPath id="SVGID_2_">
		<use xlink:href="#SVGID_1_"  overflow="visible"/>
	</clipPath>
	<path clip-path="url(#SVGID_2_)" fill="#FFFFFF" d="M23.021,10.98c0.354,0.345,0.531,0.798,0.531,1.251
		c0,0.452-0.178,0.905-0.531,1.25c-0.71,0.691-1.859,0.691-2.568,0l-8.702-8.478L3.1,13.433c-0.71,0.69-1.858,0.69-2.567,0
		c-0.71-0.69-0.71-1.811,0-2.501L11.751,0L23.021,10.98z"/>
	<path clip-path="url(#SVGID_2_)" fill="#FFFFFF" d="M0.532,13.433c0.709,0.691,1.858,0.691,2.567,0l8.651-8.429l8.702,8.478
		c0.709,0.691,1.859,0.691,2.568,0c0.354-0.345,0.531-0.798,0.531-1.25c0-0.453-0.178-0.906-0.531-1.251L11.751,0L0.532,10.931
		C-0.177,11.622-0.177,12.742,0.532,13.433"/>
</g>
</svg>
