<?xml version="1.0" encoding="utf-8"?>
<!-- Generator: Adobe Illustrator 16.0.0, SVG Export Plug-In . SVG Version: 6.00 Build 0)  -->
<!DOCTYPE svg PUBLIC "-//W3C//DTD SVG 1.1//EN" "http://www.w3.org/Graphics/SVG/1.1/DTD/svg11.dtd">
<svg version="1.1" id="Layer_1" xmlns="http://www.w3.org/2000/svg" xmlns:xlink="http://www.w3.org/1999/xlink" x="0px" y="0px"
	 width="102px" height="102px" viewBox="0 0 102 102" enable-background="new 0 0 102 102" xml:space="preserve">
<g>
	<g>
		<defs>
			<path id="SVGID_1_" d="M46.779,32.702h0.53c-0.089-0.012-0.177-0.019-0.265-0.019C46.956,32.684,46.868,32.69,46.779,32.702
				 M79.615,30.327c0.176,1.766,0.215,3.548,0.268,5.326c0.217,7.021,0.412,14.043,0.619,21.063
				c0.008,0.239,0.045,0.478,0.076,0.814h3.551v4.335H50.195V57.53h3.549c0.09-1.383,0.182-2.662,0.254-3.943
				c0.148-2.665,0.256-5.332,0.457-7.994c0.047-0.598,0.293-1.257,0.645-1.746c0.307-0.43,0.617-0.858,0.927-1.288
				c-2.892-3.509-5.915-7.017-8.717-9.856c0.127,1.188,0.263,2.372,0.377,3.557c0.15,1.541,0.308,3.082,0.403,4.626
				c0.001,0.025,0.002,0.05,0.002,0.076c0.001,0.34-0.124,0.737-0.324,1.001c-0.899,1.188-1.826,2.358-2.806,3.48
				c-0.378,0.432-0.529,0.859-0.528,1.368c0.001,0.112,0.008,0.228,0.022,0.348c0.553,4.668,1.083,9.337,1.614,14.006
				c0.512,4.499,1.018,8.997,1.542,13.634h2.642v3.951H19.136c-0.022,0.002-0.043,0.002-0.062,0.002c-0.018,0-0.036,0-0.051-0.002
				C24.298,84.121,41.516,93.744,53.299,102c1.729-0.134,3.451-0.353,5.162-0.657C99.281,93.04,101.89,52.177,102,49.998
				c0-0.031,0-0.062,0-0.094L77.33,22.383C78.637,24.828,79.334,27.501,79.615,30.327"/>
		</defs>
		<clipPath id="SVGID_2_">
			<use xlink:href="#SVGID_1_"  overflow="visible"/>
		</clipPath>
		
			<linearGradient id="SVGID_3_" gradientUnits="userSpaceOnUse" x1="-373.4702" y1="346.9512" x2="-372.4699" y2="346.9512" gradientTransform="matrix(-66.1783 -24.0869 -24.0869 66.1783 -16263.1992 -31881.4922)">
			<stop  offset="0" style="stop-color:#BCBEC0"/>
			<stop  offset="0.2134" style="stop-color:#B9BBBD"/>
			<stop  offset="0.4147" style="stop-color:#AFB1B4"/>
			<stop  offset="0.6107" style="stop-color:#A0A2A5"/>
			<stop  offset="0.7395" style="stop-color:#939598"/>
			<stop  offset="1" style="stop-color:#939598"/>
		</linearGradient>
		<polygon clip-path="url(#SVGID_2_)" fill="url(#SVGID_3_)" points="92.294,128.668 -6.565,92.687 28.73,-4.285 127.589,31.696 		
			"/>
	</g>
	<g>
		<defs>
			<rect id="SVGID_4_" x="19.023" y="12.269" width="82.977" height="89.731"/>
		</defs>
		<clipPath id="SVGID_5_">
			<use xlink:href="#SVGID_4_"  overflow="visible"/>
		</clipPath>
		<path clip-path="url(#SVGID_5_)" fill="#E6E7E8" d="M47.611,74.797c-0.524-4.636-1.029-9.135-1.541-13.633
			c-0.532-4.669-1.062-9.338-1.614-14.005c-0.079-0.671,0.045-1.191,0.505-1.717c0.981-1.122,1.908-2.292,2.807-3.481
			c0.214-0.283,0.343-0.721,0.321-1.076c-0.095-1.544-0.253-3.085-0.402-4.625c-0.115-1.186-0.25-2.37-0.377-3.559h-4.692v3.147
			h-3.716v-3.479H30.25v3.495h-3.809v-3.132h-4.666c-0.297,2.795-0.599,5.528-0.858,8.266c-0.028,0.294,0.13,0.664,0.318,0.909
			c0.715,0.932,1.419,1.886,2.238,2.723c1.001,1.022,1.257,2.084,1.073,3.539c-0.969,7.675-1.801,15.368-2.688,23.054
			c-0.136,1.184-0.313,2.361-0.479,3.597h-2.355v3.93h31.229v-3.952H47.611"/>
		<path clip-path="url(#SVGID_5_)" fill="#CDCFD0" d="M41.738,46.747c-1.075,0.436-3.164,0.58-5.474,0.58
			c-4.617,0-10.112-0.58-10.112-0.58l-3.937,27.886h1.432l4.14-25.562C27.787,49.071,37.341,48.985,41.738,46.747"/>
		<path clip-path="url(#SVGID_5_)" fill="#CDCFD0" d="M46.378,40.034h-0.689H46.378 M45.689,40.034H22.215
			c0,0,5.996,1.071,12.951,1.071C38.644,41.105,42.361,40.837,45.689,40.034"/>
		<path clip-path="url(#SVGID_5_)" fill="#E6E7E8" d="M60.808,12.381c1.568,0.855,3.136,1.713,4.757,2.599
			c0.448-0.751,0.912-1.504,1.35-2.272c0.265-0.468,0.514-0.589,1.002-0.223c2.806,2.111,5.408,4.427,7.615,7.178
			c2.508,3.126,3.693,6.749,4.084,10.665c0.177,1.767,0.213,3.549,0.269,5.325c0.215,7.021,0.412,14.043,0.619,21.064
			c0.006,0.239,0.044,0.477,0.075,0.815h3.552v4.334H50.196V57.53h3.548c0.09-1.384,0.181-2.662,0.253-3.942
			c0.149-2.665,0.257-5.333,0.459-7.994c0.045-0.599,0.292-1.257,0.643-1.747c2.558-3.563,5.165-7.091,7.755-10.631
			c0.198-0.269,0.383-0.547,0.709-1.017c-0.97,0.312-1.738,0.557-2.504,0.81c-1.656,0.548-3.307,1.122-4.976,1.633
			c-0.377,0.116-0.833,0.09-1.228,0.006c-0.625-0.134-1.218-0.437-1.846-0.552c-1.443-0.265-2.369-1.063-2.98-2.396
			c-0.267-0.581-0.224-0.896,0.173-1.352c3.63-4.163,7.229-8.352,10.86-12.514c0.426-0.488,0.584-0.903,0.385-1.558
			c-0.358-1.191-0.596-2.421-0.885-3.634L60.808,12.381z"/>
		<path clip-path="url(#SVGID_5_)" fill="#CDCFD0" d="M75.977,26.03L65.97,31.371c0,0-5.812,8.148-9.249,13.262
			c0.803,0.037-0.211,0.037,0.803,0.037C70.784,30.358,75.977,26.03,75.977,26.03"/>
		<path clip-path="url(#SVGID_5_)" fill="#CDCFD0" d="M67.812,14.059l-0.815,1.658c0,0,0.662-0.028,1.668-0.028
			c0.502,0,1.092,0.007,1.727,0.028C69.101,14.242,67.812,14.059,67.812,14.059"/>
	</g>
	<polygon fill="#CDCFD0" points="61.427,14.059 62.164,16.085 64.804,15.717 	"/>
</g>
</svg>
