<?xml version="1.0" encoding="utf-8"?>
<!-- Generator: Adobe Illustrator 16.0.0, SVG Export Plug-In . SVG Version: 6.00 Build 0)  -->
<!DOCTYPE svg PUBLIC "-//W3C//DTD SVG 1.1//EN" "http://www.w3.org/Graphics/SVG/1.1/DTD/svg11.dtd">
<svg version="1.1" id="Layer_1" xmlns="http://www.w3.org/2000/svg" xmlns:xlink="http://www.w3.org/1999/xlink" x="0px" y="0px"
	 width="29.143px" height="30.554px" viewBox="0 0 29.143 30.554" enable-background="new 0 0 29.143 30.554" xml:space="preserve">
<g>
	<defs>
		<rect id="SVGID_1_" width="29.143" height="30.554"/>
	</defs>
	<clipPath id="SVGID_2_">
		<use xlink:href="#SVGID_1_"  overflow="visible"/>
	</clipPath>
	<path clip-path="url(#SVGID_2_)" fill="#A0A0A0" d="M23.228,11.123c-0.979,5.761-6.438,10.657-8.084,11.767
		c-1.634,1.119-3.139-0.448-3.681-1.633c-0.621-1.341-2.481-8.651-2.971-9.258c-0.487-0.606-1.955,0.606-1.955,0.606l-0.711-0.979
		c0,0,2.978-3.721,5.236-4.186c2.402-0.494,2.393,3.858,2.971,6.283c0.56,2.34,0.934,3.674,1.423,3.674
		c0.49,0,1.423-1.306,2.445-3.301c1.021-2.005-0.043-3.767-2.044-2.516C16.655,6.554,24.197,5.352,23.228,11.123 M14.565,0
		C6.526,0,0,6.843,0,15.271c0,8.439,6.526,15.282,14.565,15.282c8.05,0,14.577-6.843,14.577-15.282C29.143,6.833,22.615,0,14.565,0"
		/>
</g>
</svg>
