<?xml version="1.0" encoding="utf-8"?>
<!-- Generator: Adobe Illustrator 16.0.0, SVG Export Plug-In . SVG Version: 6.00 Build 0)  -->
<!DOCTYPE svg PUBLIC "-//W3C//DTD SVG 1.1//EN" "http://www.w3.org/Graphics/SVG/1.1/DTD/svg11.dtd">
<svg version="1.1" id="Layer_1" xmlns="http://www.w3.org/2000/svg" xmlns:xlink="http://www.w3.org/1999/xlink" x="0px" y="0px"
	 width="27px" height="27px" viewBox="0 0 27 27" enable-background="new 0 0 27 27" xml:space="preserve">
<g>
	<path d="M21.932,20.036h-3.369v-7.298c0-0.856-0.246-1.458-1.292-1.458c-1.749,0-2.086,1.458-2.086,1.458v7.298h-3.369V8.222h3.369
		v1.13c0.486-0.363,1.689-1.122,3.378-1.122c1.096,0,3.369,0.652,3.369,4.606V20.036z M8.544,7.507c-0.874,0-1.582-0.709-1.582-1.59
		c0-0.874,0.708-1.582,1.582-1.582c0.873,0.009,1.582,0.717,1.582,1.582C10.126,6.798,9.417,7.507,8.544,7.507 M10.126,20.036H6.748
		V8.222h3.379V20.036z M13.495,0C6.047,0,0,6.048,0,13.495C0,20.952,6.047,27,13.495,27C20.953,27,27,20.952,27,13.495
		C27,6.039,20.953,0,13.495,0"/>
</g>
</svg>
