<?xml version="1.0" encoding="utf-8"?>
<!-- Generator: Adobe Illustrator 16.0.0, SVG Export Plug-In . SVG Version: 6.00 Build 0)  -->
<!DOCTYPE svg PUBLIC "-//W3C//DTD SVG 1.1//EN" "http://www.w3.org/Graphics/SVG/1.1/DTD/svg11.dtd">
<svg version="1.1" id="Layer_1" xmlns="http://www.w3.org/2000/svg" xmlns:xlink="http://www.w3.org/1999/xlink" x="0px" y="0px"
	 width="31.8px" height="31px" viewBox="0 0 31.8 31" enable-background="new 0 0 31.8 31" xml:space="preserve">
<g>
	<defs>
		<rect id="SVGID_1_" x="0" width="31.799" height="30.255"/>
	</defs>
	<clipPath id="SVGID_2_">
		<use xlink:href="#SVGID_1_"  overflow="visible"/>
	</clipPath>
	<path clip-path="url(#SVGID_2_)" fill="#A0A0A0" d="M24.009,12.556h-0.127l-4.325,2.45c-0.042,0-0.064,0.031-0.064,0.091
		c-0.021,0.021-0.01,0.051,0.032,0.091l4.325,4.447c0.042,0.041,0.074,0.062,0.096,0.062h0.063c0.063-0.062,0.095-0.102,0.095-0.121
		v-6.898C24.104,12.637,24.073,12.596,24.009,12.556 M18.286,15.823c-0.021-0.061-0.074-0.07-0.16-0.03l-1.749,0.968
		c-0.212,0.121-0.435,0.121-0.668,0l-1.526-0.816c-0.064-0.04-0.117-0.04-0.159,0l-5.82,5.144c-0.021,0.02-0.031,0.06-0.031,0.121
		c0,0.02,0.021,0.05,0.063,0.091c0.127,0.04,0.212,0.061,0.255,0.061h14.914c0.043,0,0.084-0.021,0.127-0.061
		c0-0.081-0.011-0.131-0.031-0.152L18.286,15.823z M12.752,15.339c0.021-0.02,0.032-0.05,0.032-0.09
		c0-0.062-0.022-0.091-0.064-0.091l-4.547-2.481c-0.064-0.02-0.117-0.02-0.159,0c-0.043,0-0.064,0.03-0.064,0.091v6.504
		c0,0.062,0.032,0.102,0.095,0.121h0.064c0.042,0,0.064-0.01,0.064-0.029L12.752,15.339z M23.564,8.895H8.491
		c-0.149,0-0.276,0.045-0.382,0.137C8.003,9.122,7.95,9.248,7.95,9.409v1.604c0,0.081,0.032,0.121,0.095,0.121l7.918,4.296
		l0.064,0.03c0.042,0,0.074-0.01,0.096-0.03l7.663-4.296c0.043-0.02,0.074-0.03,0.097-0.03c0.021,0,0.053-0.01,0.095-0.029
		c0.085,0,0.127-0.041,0.127-0.122V9.409c0-0.161-0.053-0.287-0.158-0.378C23.838,8.939,23.711,8.895,23.564,8.895 M15.9,30.255
		c-1.463,0-2.872-0.182-4.229-0.545c-1.357-0.363-2.624-0.872-3.8-1.528c-1.177-0.654-2.247-1.441-3.212-2.358
		c-0.965-0.918-1.791-1.938-2.48-3.057c-0.689-1.12-1.225-2.325-1.606-3.615C0.191,17.861,0,16.519,0,15.128
		c0-1.392,0.191-2.733,0.573-4.024C0.954,9.812,1.49,8.607,2.179,7.488s1.515-2.139,2.48-3.056c0.965-0.918,2.035-1.705,3.212-2.359
		c1.176-0.656,2.443-1.165,3.8-1.528C13.028,0.182,14.437,0,15.9,0c2.183,0,4.245,0.398,6.185,1.195
		c1.94,0.797,3.625,1.876,5.057,3.237s2.564,2.964,3.402,4.811c0.838,1.845,1.257,3.807,1.257,5.885
		c0,1.391-0.191,2.733-0.573,4.023s-0.917,2.495-1.605,3.615c-0.689,1.119-1.516,2.139-2.48,3.057
		c-0.965,0.917-2.035,1.704-3.212,2.358c-1.177,0.656-2.442,1.165-3.8,1.528S17.364,30.255,15.9,30.255"/>
</g>
</svg>
