<?xml version="1.0" encoding="utf-8"?>
<!-- Generator: Adobe Illustrator 16.0.0, SVG Export Plug-In . SVG Version: 6.00 Build 0)  -->
<!DOCTYPE svg PUBLIC "-//W3C//DTD SVG 1.1//EN" "http://www.w3.org/Graphics/SVG/1.1/DTD/svg11.dtd">
<svg version="1.1" id="Layer_1" xmlns="http://www.w3.org/2000/svg" xmlns:xlink="http://www.w3.org/1999/xlink" x="0px" y="0px"
	 width="27px" height="27px" viewBox="0 0 27 27" enable-background="new 0 0 27 27" xml:space="preserve">
<path d="M20.219,10.472l0.008,0.429c0,4.392-3.345,9.457-9.459,9.457c-1.877,0-3.624-0.55-5.091-1.499
	c0.255,0.034,0.521,0.051,0.791,0.051c1.558,0,2.991-0.536,4.127-1.426c-1.458-0.025-2.677-0.989-3.105-2.308
	c0.205,0.042,0.411,0.06,0.627,0.06c0.303,0,0.601-0.042,0.873-0.117c-1.516-0.306-2.662-1.647-2.662-3.254v-0.042
	c0.445,0.248,0.956,0.396,1.5,0.413c-0.89-0.593-1.474-1.615-1.474-2.761c0-0.609,0.165-1.185,0.454-1.672
	c1.63,2.01,4.085,3.328,6.846,3.47c-0.059-0.241-0.082-0.496-0.082-0.76c0-1.828,1.483-3.319,3.32-3.319
	c0.955,0,1.821,0.404,2.43,1.045c0.75-0.147,1.466-0.419,2.109-0.799c-0.246,0.776-0.774,1.426-1.466,1.837
	c0.675-0.082,1.317-0.264,1.91-0.528C21.43,9.418,20.862,10.002,20.219,10.472 M13.495,0C6.047,0,0,6.047,0,13.495
	C0,20.952,6.047,27,13.495,27C20.953,27,27,20.952,27,13.495C27,6.039,20.953,0,13.495,0"/>
</svg>
