<?xml version="1.0" encoding="utf-8"?>
<!-- Generator: Adobe Illustrator 16.0.0, SVG Export Plug-In . SVG Version: 6.00 Build 0)  -->
<!DOCTYPE svg PUBLIC "-//W3C//DTD SVG 1.1//EN" "http://www.w3.org/Graphics/SVG/1.1/DTD/svg11.dtd">
<svg version="1.1" id="Layer_1" xmlns="http://www.w3.org/2000/svg" xmlns:xlink="http://www.w3.org/1999/xlink" x="0px" y="0px"
	 width="102px" height="102px" viewBox="0 0 102 102" enable-background="new 0 0 102 102" xml:space="preserve">
<g>
	<g>
		<path fill="#4BBA77" d="M87.167,14.938c-19.778-19.917-51.842-19.917-71.619,0c-19.777,19.917-19.777,52.208,0,72.124
			c19.777,19.917,51.841,19.917,71.619,0C106.944,67.146,106.944,34.855,87.167,14.938"/>
		<g opacity="0.6">
			<g>
				<defs>
					<rect id="SVGID_1_" x="21.639" y="20.071" width="79.831" height="81.566"/>
				</defs>
				<clipPath id="SVGID_2_">
					<use xlink:href="#SVGID_1_"  overflow="visible"/>
				</clipPath>
				<g clip-path="url(#SVGID_2_)">
					<defs>
						<path id="SVGID_3_" d="M71.817,20.071l1.842,1.798c6.775,10.217,25.416,32.719,27.811,36.512
							c-3.238,20.698-25.974,53.924-69.107,39.91c-6.577-9.162-10.068-13.672-10.712-14.523c-0.369-0.486,8.524-4.85,7.87-5.627
							c-0.548-0.651,14.392-3.144,13.557-4.51c1.517-0.684,5.677,0.541,10.132,1.045c1.748,0.197,3.488-0.316,3.488-0.316
							s-0.157-0.648,1.281-1.293c1.438-0.644-0.183-3.516,1.758-7.885c2.717-6.115,7.99-9.334,9.428-14.322
							C70.602,45.871,72.483,36.588,71.817,20.071"/>
					</defs>
					<clipPath id="SVGID_4_">
						<use xlink:href="#SVGID_3_"  overflow="visible"/>
					</clipPath>
					
						<linearGradient id="SVGID_5_" gradientUnits="userSpaceOnUse" x1="-281.5107" y1="503.2852" x2="-280.5471" y2="503.2852" gradientTransform="matrix(-53.9181 -31.1296 -31.1296 53.9181 579.5039 -35816.2266)">
						<stop  offset="0" style="stop-color:#FFFFFF"/>
						<stop  offset="0.1112" style="stop-color:#F9FAFA"/>
						<stop  offset="0.2172" style="stop-color:#EFEFF0"/>
						<stop  offset="0.3212" style="stop-color:#DFE0E1"/>
						<stop  offset="0.4239" style="stop-color:#C8CACC"/>
						<stop  offset="0.5257" style="stop-color:#ACAEB0"/>
						<stop  offset="0.6268" style="stop-color:#8A8C8F"/>
						<stop  offset="0.7257" style="stop-color:#656668"/>
						<stop  offset="0.7395" style="stop-color:#5F6062"/>
						<stop  offset="1" style="stop-color:#5F6062"/>
					</linearGradient>
					<polygon clip-path="url(#SVGID_4_)" fill="url(#SVGID_5_)" points="81.422,147.272 -18.377,89.246 41.328,-14.896 
						141.128,43.129 					"/>
				</g>
			</g>
		</g>
	</g>
	<g>
		<defs>
			<path id="SVGID_6_" d="M0.005,52.853c0.159,12.518,6.68,24.56,14.451,33.072C7.409,77.164,2.305,66.004,2.333,53.853
				C2.397,25.673,25.424,2.728,52.975,2.852C67.5,2.917,80.616,7.989,89.764,17.755C80.923,7.004,66.9,0.211,51.94,0.032
				c-0.225-0.003-0.452-0.004-0.677-0.004C21.992,0.028-0.375,22.832,0.005,52.853"/>
		</defs>
		<clipPath id="SVGID_7_">
			<use xlink:href="#SVGID_6_"  overflow="visible"/>
		</clipPath>
		
			<linearGradient id="SVGID_8_" gradientUnits="userSpaceOnUse" x1="-280.4106" y1="503.3652" x2="-279.4451" y2="503.3652" gradientTransform="matrix(-40.576 -40.576 -40.576 40.576 9101.3887 -31749.4355)">
			<stop  offset="0" style="stop-color:#DCDDDE"/>
			<stop  offset="0.3204" style="stop-color:#A4BEA4"/>
			<stop  offset="0.9918" style="stop-color:#009444"/>
			<stop  offset="1" style="stop-color:#009444"/>
		</linearGradient>
		<polygon clip-path="url(#SVGID_7_)" fill="url(#SVGID_8_)" points="44.694,131.314 -43.024,42.977 44.694,-45.359 132.412,42.977 
					"/>
	</g>
	<g opacity="0.6">
		<g>
			<defs>
				<rect id="SVGID_9_" x="28.764" y="19.386" width="43.076" height="56.43"/>
			</defs>
			<clipPath id="SVGID_10_">
				<use xlink:href="#SVGID_9_"  overflow="visible"/>
			</clipPath>
			<g clip-path="url(#SVGID_10_)">
				<defs>
					<path id="SVGID_11_" d="M70.536,19.388c1.243,0.002,1.303,0.058,1.303,1.329c0.001,17.905,0.001,35.812,0,53.718
						c0,1.333-0.051,1.379-1.363,1.379c-13.437,0.002-26.873,0.002-40.311,0c-1.36,0-1.4-0.037-1.4-1.441
						c-0.001-17.84-0.001-35.678-0.001-53.516c0-1.458,0.013-1.467,1.47-1.469C32.59,19.386,68.115,19.384,70.536,19.388"/>
				</defs>
				<clipPath id="SVGID_12_">
					<use xlink:href="#SVGID_11_"  overflow="visible"/>
				</clipPath>
				
					<linearGradient id="SVGID_13_" gradientUnits="userSpaceOnUse" x1="-281.2041" y1="512.4482" x2="-280.2451" y2="512.4482" gradientTransform="matrix(44.929 0 0 -44.929 12662.9541 23071.377)">
					<stop  offset="0" style="stop-color:#FFFFFF"/>
					<stop  offset="0.1112" style="stop-color:#F9FAFA"/>
					<stop  offset="0.2172" style="stop-color:#EFEFF0"/>
					<stop  offset="0.3212" style="stop-color:#DFE0E1"/>
					<stop  offset="0.4239" style="stop-color:#C8CACC"/>
					<stop  offset="0.5257" style="stop-color:#ACAEB0"/>
					<stop  offset="0.6268" style="stop-color:#8A8C8F"/>
					<stop  offset="0.7257" style="stop-color:#656668"/>
					<stop  offset="0.7395" style="stop-color:#5F6062"/>
					<stop  offset="1" style="stop-color:#5F6062"/>
				</linearGradient>
				<rect x="28.764" y="19.384" clip-path="url(#SVGID_12_)" fill="url(#SVGID_13_)" width="43.077" height="56.432"/>
			</g>
		</g>
	</g>
	<path fill="#E6E7E8" d="M72.595,21.713c1.243,0.002,1.303,0.057,1.303,1.329c0.002,17.906,0.002,35.812,0,53.72
		c0,1.33-0.051,1.376-1.362,1.376c-13.437,0.001-26.875,0.001-40.31,0.001c-1.361,0-1.401-0.036-1.401-1.441
		c-0.001-17.839-0.001-35.677,0-53.517c0-1.457,0.014-1.467,1.47-1.468C34.65,21.712,70.175,21.71,72.595,21.713"/>
	<path fill="#E6E7E8" d="M59.048,52.283c0-1.379,0.263-2.674,0.789-3.884c0.524-1.21,1.237-2.267,2.135-3.171
		c0.898-0.906,1.949-1.623,3.15-2.151s2.487-0.795,3.857-0.795c1.371,0,2.656,0.267,3.858,0.795c1.201,0.528,2.25,1.245,3.15,2.151
		c0.898,0.904,1.611,1.961,2.136,3.171c0.524,1.21,0.695,2.509,0.787,3.884c0.24,3.578-2.837,8.115-6.073,9.209
		c-1.243,0.42-2.487,0.793-3.858,0.793c-1.37,0-2.656-0.264-3.857-0.793s-2.251-1.246-3.15-2.151
		c-0.898-0.903-1.611-1.962-2.135-3.171C59.311,54.958,59.048,53.664,59.048,52.283"/>
	<path fill="#4BBA77" d="M75.496,44.816c-2.018-1.811-5.8-3.498-8.688-3.088c-5.715,0.81-9.422,5.901-8.463,11.719
		c0.396,2.407,2.695,5.18,4.441,6.59c-1.614-1.48-2.758-3.505-3.109-5.847c-0.812-5.433,2.955-10.536,8.269-11.331
		C70.746,42.441,73.447,43.205,75.496,44.816"/>
	<path fill="#4BBA77" d="M70.165,46.91c2.201,0,3.495,0.654,3.495,1.414c0,0.379-0.366,0.78-0.879,0.78
		c-0.83,0-1.149-0.591-2.616-0.591c-2.663,0-3.999,2.234-3.999,4.133c0,1.897,1.336,4.133,3.999,4.133
		c1.516,0,1.907-0.633,2.592-0.633c0.488,0,0.83,0.275,0.83,0.78c0,0.694-1.198,1.454-3.422,1.454c-3.958,0-5.866-2.762-5.866-5.734
		S66.206,46.91,70.165,46.91"/>
	<g>
		<defs>
			<path id="SVGID_14_" d="M27.105,75.979c0.602,1.036,3.659,6.246,4.235,7.234c9.148-5.399,18.217-10.747,27.194-16.044
				c-0.632-1.001-3.89-5.982-4.513-6.97C45.069,65.48,36.202,70.613,27.105,75.979"/>
		</defs>
		<clipPath id="SVGID_15_">
			<use xlink:href="#SVGID_14_"  overflow="visible"/>
		</clipPath>
		
			<linearGradient id="SVGID_16_" gradientUnits="userSpaceOnUse" x1="-290.1348" y1="519.9355" x2="-289.1694" y2="519.9355" gradientTransform="matrix(11.8281 11.8281 11.8281 -11.8281 -2681.061 9647.5449)">
			<stop  offset="0" style="stop-color:#FFFFFF"/>
			<stop  offset="0.021" style="stop-color:#F3F7F3"/>
			<stop  offset="0.2326" style="stop-color:#AEC8B1"/>
			<stop  offset="0.4323" style="stop-color:#7AAB85"/>
			<stop  offset="0.6145" style="stop-color:#519867"/>
			<stop  offset="0.7756" style="stop-color:#288C52"/>
			<stop  offset="0.9096" style="stop-color:#008648"/>
			<stop  offset="1" style="stop-color:#008445"/>
		</linearGradient>
		<polygon clip-path="url(#SVGID_15_)" fill="url(#SVGID_16_)" points="42.819,44.375 69.96,71.707 42.819,99.039 15.679,71.707 		
			"/>
	</g>
	<g>
		<defs>
			<path id="SVGID_17_" d="M22.907,78.486c-1.58,1.092-2.132,3.627-1.255,5.281c0.994,1.883,3.207,2.823,5.129,1.997
				c1.391-0.599,2.671-1.452,4.041-2.212c-1.448-2.486-2.822-4.848-4.233-7.273C25.319,77.033,24.063,77.687,22.907,78.486"/>
		</defs>
		<clipPath id="SVGID_18_">
			<use xlink:href="#SVGID_17_"  overflow="visible"/>
		</clipPath>
		
			<linearGradient id="SVGID_19_" gradientUnits="userSpaceOnUse" x1="-306.3955" y1="513.3145" x2="-305.4303" y2="513.3145" gradientTransform="matrix(0 10.1352 10.1352 0 -5176.7417 3181.6501)">
			<stop  offset="0" style="stop-color:#DCDDDE"/>
			<stop  offset="0.3204" style="stop-color:#A4BEA4"/>
			<stop  offset="0.9918" style="stop-color:#009444"/>
			<stop  offset="1" style="stop-color:#009444"/>
		</linearGradient>
		<rect x="20.774" y="76.279" clip-path="url(#SVGID_18_)" fill="url(#SVGID_19_)" width="10.046" height="10.312"/>
	</g>
	<g>
		<defs>
			<path id="SVGID_20_" d="M54.45,59.85c0.547,0.769,3.447,5.406,4.539,6.953c2.439-2.967,4.832-6.647,7.48-9.87
				C62.313,57.877,58.171,59.138,54.45,59.85"/>
		</defs>
		<clipPath id="SVGID_21_">
			<use xlink:href="#SVGID_20_"  overflow="visible"/>
		</clipPath>
		
			<linearGradient id="SVGID_22_" gradientUnits="userSpaceOnUse" x1="-277.666" y1="526.2979" x2="-276.707" y2="526.2979" gradientTransform="matrix(12.5353 0 0 -12.5353 3535.085 6659.1641)">
			<stop  offset="0" style="stop-color:#FFFFFF"/>
			<stop  offset="0.0338" style="stop-color:#EAF1E9"/>
			<stop  offset="0.1436" style="stop-color:#BCD4BA"/>
			<stop  offset="0.2573" style="stop-color:#95BF95"/>
			<stop  offset="0.3723" style="stop-color:#75B07A"/>
			<stop  offset="0.4891" style="stop-color:#59A563"/>
			<stop  offset="0.6083" style="stop-color:#3F9D53"/>
			<stop  offset="0.7307" style="stop-color:#24984A"/>
			<stop  offset="0.8584" style="stop-color:#039545"/>
			<stop  offset="1" style="stop-color:#009444"/>
		</linearGradient>
		<rect x="54.45" y="56.933" clip-path="url(#SVGID_21_)" fill="url(#SVGID_22_)" width="12.019" height="9.87"/>
	</g>
	<path fill="#E6E7E8" d="M28.371,76.537l25.61-15.291l0.683,1.038c0,0-24.655,13.915-24.835,13.997
		C29.283,76.525,28.371,76.537,28.371,76.537"/>
	<path fill="#E6E7E8" d="M22.665,79.855c1.163-1.01,1.877-1.006,0.999-0.16c-1.752,1.684,1.079,3.942-0.719,4.465
		C21.983,84.44,21.275,81.062,22.665,79.855"/>
	<polygon fill="#E6E7E8" points="55.583,60.585 56.078,61.429 62.563,58.38 	"/>
</g>
</svg>
