<?xml version="1.0" encoding="utf-8"?>
<!-- Generator: Adobe Illustrator 16.0.0, SVG Export Plug-In . SVG Version: 6.00 Build 0)  -->
<!DOCTYPE svg PUBLIC "-//W3C//DTD SVG 1.1//EN" "http://www.w3.org/Graphics/SVG/1.1/DTD/svg11.dtd">
<svg version="1.1" id="Layer_1" xmlns="http://www.w3.org/2000/svg" xmlns:xlink="http://www.w3.org/1999/xlink" x="0px" y="0px"
	 width="102px" height="102px" viewBox="0 0 102 102" enable-background="new 0 0 102 102" xml:space="preserve">
<g>
	<g>
		<path fill="#BCBEC0" d="M87.167,15.292c-19.777-19.836-51.842-19.836-71.619,0c-19.777,19.836-19.777,51.996,0,71.831
			c19.776,19.837,51.841,19.837,71.619,0C106.945,67.287,106.945,35.127,87.167,15.292"/>
		<path fill="#F1F2F2" d="M89.764,18.56C80.923,7.854,66.899,0.183,51.941,0.004C22.337-0.35-0.377,22.481,0.005,52.61
			C0.163,65.078,6.137,76.922,13.909,85.4C6.863,76.675,2.306,65.708,2.334,53.604C2.397,25.542,25.425,2.688,52.976,2.812
			C67.5,2.878,80.616,8.833,89.764,18.56"/>
	</g>
	<g>
		<g>
			<defs>
				<path id="SVGID_1_" d="M63.87,47.817c-0.536,1.441-4.928,3.321-12.382,6.102c-5.123-0.673-18.68-6.76-20.16-6.102
					c-1.479,0.66,15.217,19.368,15.217,19.368s-14.442-4.864-16.239-5.066c5.09,5.198,19.905,29.298,26.538,38.918
					C102,92.694,102,51.244,102,51.244L89.414,39.66C82.313,42.085,65.726,42.832,63.87,47.817"/>
			</defs>
			<clipPath id="SVGID_2_">
				<use xlink:href="#SVGID_1_"  overflow="visible"/>
			</clipPath>
			
				<linearGradient id="SVGID_3_" gradientUnits="userSpaceOnUse" x1="-219.3354" y1="578.269" x2="-218.3756" y2="578.269" gradientTransform="matrix(-68.6824 -24.9983 -24.9983 68.6824 -514.7695 -45119.4336)">
				<stop  offset="0" style="stop-color:#BCBEC0"/>
				<stop  offset="0.2134" style="stop-color:#B9BBBD"/>
				<stop  offset="0.4147" style="stop-color:#AFB1B4"/>
				<stop  offset="0.6107" style="stop-color:#A0A2A5"/>
				<stop  offset="0.7395" style="stop-color:#939598"/>
				<stop  offset="1" style="stop-color:#939598"/>
			</linearGradient>
			<polygon clip-path="url(#SVGID_2_)" fill="url(#SVGID_3_)" points="93.56,124.296 10.181,93.858 38.289,16.402 121.668,46.84 			
				"/>
		</g>
		<g opacity="0.16">
			<g>
				<defs>
					<rect id="SVGID_4_" x="79.508" y="42.273" width="21.588" height="43.927"/>
				</defs>
				<clipPath id="SVGID_5_">
					<use xlink:href="#SVGID_4_"  overflow="visible"/>
				</clipPath>
				<g clip-path="url(#SVGID_5_)">
					<defs>
						<path id="SVGID_6_" d="M86.743,86.2c-3.884-4.305-4.225-5.601-7.235-8.323c1.797,0.204,6.023-0.257,6.023-0.257
							s-1.23-5.389-3.088-11.285c-0.131-0.415-1.333-1.166-1.379-1.609c-0.875-8.3,1.176-18.287,0.639-22.453
							c8.599,6.986,19.639,15.149,19.389,16.667"/>
					</defs>
					<clipPath id="SVGID_7_">
						<use xlink:href="#SVGID_6_"  overflow="visible"/>
					</clipPath>
					
						<linearGradient id="SVGID_8_" gradientUnits="userSpaceOnUse" x1="-215.7656" y1="578.9331" x2="-214.8057" y2="578.9331" gradientTransform="matrix(-23.4274 -8.5269 -8.5269 23.4274 -20.1895 -15335.623)">
						<stop  offset="0" style="stop-color:#FFFFFF"/>
						<stop  offset="0.1112" style="stop-color:#F9FAFA"/>
						<stop  offset="0.2172" style="stop-color:#EFEFF0"/>
						<stop  offset="0.3212" style="stop-color:#DFE0E1"/>
						<stop  offset="0.4239" style="stop-color:#C8CACC"/>
						<stop  offset="0.5257" style="stop-color:#ACAEB0"/>
						<stop  offset="0.6268" style="stop-color:#8A8C8F"/>
						<stop  offset="0.7257" style="stop-color:#656668"/>
						<stop  offset="0.7395" style="stop-color:#5F6062"/>
						<stop  offset="1" style="stop-color:#5F6062"/>
					</linearGradient>
					<polygon clip-path="url(#SVGID_7_)" fill="url(#SVGID_8_)" points="98.788,93.238 65.432,81.062 82.062,35.234 115.418,47.411 
											"/>
				</g>
			</g>
		</g>
		<path fill="#E6E7E8" d="M9.913,42.882c0.56,0.232,0.812,0.368,1.079,0.442c12.735,3.584,25.467,7.172,38.214,10.71
			c0.702,0.194,1.594,0.139,2.282-0.116c8.97-3.331,17.92-6.719,26.875-10.092c0.535-0.202,1.079-0.382,1.771-0.627
			c0.314,7.289,0.619,14.344,0.929,21.526c0.625-0.014,1.144-0.027,1.714-0.039c0.03-0.404,0.081-0.698,0.068-0.99
			c-0.276-6.623-0.53-13.246-0.874-19.865c-0.055-1.054,0.229-1.519,1.202-1.849c2.102-0.711,4.162-1.542,6.239-2.323
			c-0.295-0.346-0.521-0.407-0.75-0.447c-12.8-2.189-25.599-4.386-38.405-6.544c-0.709-0.119-1.501-0.019-2.208,0.165
			c-12.115,3.142-24.223,6.313-36.333,9.481C11.212,42.447,10.719,42.627,9.913,42.882 M72.79,47.817
			c-0.662,0.245-1.168,0.412-1.657,0.615c-6.477,2.695-12.942,5.419-19.442,8.056c-0.76,0.309-1.784,0.384-2.564,0.154
			c-5.043-1.488-10.052-3.097-15.076-4.653c-2.418-0.75-4.845-1.473-7.409-2.25c0.146,3.49,0.247,6.744,0.459,9.99
			c0.03,0.464,0.502,1.097,0.936,1.305c2.616,1.252,5.233,2.528,7.939,3.561c4.766,1.819,9.738,2.948,14.842,2.683
			c8.267-0.43,15.25-4.201,21.718-9.079c0.313-0.236,0.65-0.71,0.64-1.062C73.095,54.094,72.936,51.051,72.79,47.817 M85.53,77.619
			c-0.773-3.821-1.515-7.48-2.345-11.579c-0.925,0.43-2.243,0.678-2.319,1.134c-0.583,3.496-0.924,7.032-1.357,10.703
			C81.57,77.79,83.448,77.709,85.53,77.619"/>
		<path fill="#E6E7E8" d="M9.913,42.882c0.806-0.255,1.3-0.435,1.806-0.567c12.108-3.169,24.216-6.339,36.333-9.482
			c0.706-0.183,1.499-0.283,2.208-0.164c12.805,2.158,25.605,4.354,38.404,6.545c0.23,0.039,0.455,0.101,0.75,0.446
			c-2.077,0.782-4.138,1.611-6.238,2.323c-0.975,0.33-1.258,0.795-1.202,1.849c0.342,6.62,0.595,13.243,0.872,19.865
			c0.013,0.291-0.039,0.585-0.067,0.989c-0.57,0.014-1.09,0.025-1.713,0.04c-0.311-7.182-0.615-14.237-0.93-21.526
			c-0.694,0.245-1.236,0.427-1.771,0.627c-8.956,3.373-17.905,6.762-26.876,10.092c-0.687,0.255-1.579,0.31-2.282,0.116
			c-12.747-3.538-25.478-7.126-38.213-10.71C10.724,43.25,10.473,43.114,9.913,42.882"/>
		<path fill="#E6E7E8" d="M72.791,47.817c0.145,3.233,0.305,6.276,0.387,9.32c0.01,0.354-0.328,0.827-0.64,1.063
			c-6.468,4.877-13.452,8.647-21.718,9.079c-5.105,0.265-10.076-0.864-14.843-2.684c-2.706-1.033-5.323-2.308-7.939-3.56
			c-0.434-0.208-0.906-0.84-0.937-1.305c-0.212-3.246-0.312-6.501-0.458-9.991c2.564,0.778,4.991,1.5,7.409,2.25
			c5.023,1.556,10.031,3.164,15.075,4.652c0.781,0.23,1.805,0.154,2.565-0.154c6.5-2.636,12.964-5.362,19.441-8.055
			C71.622,48.229,72.127,48.062,72.791,47.817"/>
		<path fill="#E6E7E8" d="M85.53,77.619c-2.082,0.09-3.959,0.171-6.022,0.258c0.434-3.67,0.775-7.207,1.357-10.703
			c0.077-0.456,1.394-0.704,2.319-1.134C84.015,70.139,84.756,73.798,85.53,77.619"/>
	</g>
</g>
</svg>
