<?xml version="1.0" encoding="utf-8"?>
<!-- Generator: Adobe Illustrator 16.0.0, SVG Export Plug-In . SVG Version: 6.00 Build 0)  -->
<!DOCTYPE svg PUBLIC "-//W3C//DTD SVG 1.1//EN" "http://www.w3.org/Graphics/SVG/1.1/DTD/svg11.dtd">
<svg version="1.1" id="Layer_1" xmlns="http://www.w3.org/2000/svg" xmlns:xlink="http://www.w3.org/1999/xlink" x="0px" y="0px"
	 width="102px" height="102px" viewBox="0 0 102 102" enable-background="new 0 0 102 102" xml:space="preserve">
<g>
	<path fill="#4BBA77" d="M87.167,14.938c-19.777-19.917-51.843-19.917-71.619,0s-19.776,52.209,0,72.125
		c19.776,19.917,51.842,19.917,71.619,0C106.944,67.146,106.944,34.854,87.167,14.938"/>
	<g opacity="0.6">
		<g>
			<defs>
				<rect id="SVGID_1_" x="29.398" y="23.054" width="72.576" height="78.52"/>
			</defs>
			<clipPath id="SVGID_2_">
				<use xlink:href="#SVGID_1_"  overflow="visible"/>
			</clipPath>
			<g clip-path="url(#SVGID_2_)">
				<defs>
					<path id="SVGID_3_" d="M72.538,23.054l29.437,29.492c0,0-0.61,43.688-46.967,49.027c-8.614-8.76-18.996-17.329-24.086-22.548
						c1.797,0.203,13.787-11.442,13.787-11.442S28.012,48.798,29.491,48.137c1.479-0.662,15.038,5.449,20.159,6.127
						c7.456-2.793,11.849-4.68,12.384-6.127C63.889,43.131,65.438,25.489,72.538,23.054"/>
				</defs>
				<clipPath id="SVGID_4_">
					<use xlink:href="#SVGID_3_"  overflow="visible"/>
				</clipPath>
				
					<linearGradient id="SVGID_5_" gradientUnits="userSpaceOnUse" x1="-483.2412" y1="266.5449" x2="-482.2792" y2="266.5449" gradientTransform="matrix(-70.572 -25.6861 -25.6861 70.572 -27159.9531 -31149.3047)">
					<stop  offset="0" style="stop-color:#FFFFFF"/>
					<stop  offset="0.1112" style="stop-color:#F9FAFA"/>
					<stop  offset="0.2172" style="stop-color:#EFEFF0"/>
					<stop  offset="0.3212" style="stop-color:#DFE0E1"/>
					<stop  offset="0.4239" style="stop-color:#C8CACC"/>
					<stop  offset="0.5257" style="stop-color:#ACAEB0"/>
					<stop  offset="0.6268" style="stop-color:#8A8C8F"/>
					<stop  offset="0.7257" style="stop-color:#656668"/>
					<stop  offset="0.7395" style="stop-color:#5F6062"/>
					<stop  offset="1" style="stop-color:#5F6062"/>
				</linearGradient>
				<polygon clip-path="url(#SVGID_4_)" fill="url(#SVGID_5_)" points="93.322,125.512 2.953,92.389 36.664,-0.885 127.033,32.239 
									"/>
			</g>
		</g>
	</g>
	<g>
		<defs>
			<path id="SVGID_6_" d="M0.005,52.853C0.163,65.37,5.829,77.413,13.6,85.925C6.555,77.164,2.307,66.004,2.334,53.852
				c0.063-28.178,23.091-51.124,50.642-51C67.5,2.917,80.616,8.897,89.764,18.663C80.923,7.913,66.899,0.212,51.94,0.031
				c-0.226-0.003-0.453-0.004-0.679-0.004C21.99,0.026-0.374,22.832,0.005,52.853"/>
		</defs>
		<clipPath id="SVGID_7_">
			<use xlink:href="#SVGID_6_"  overflow="visible"/>
		</clipPath>
		
			<linearGradient id="SVGID_8_" gradientUnits="userSpaceOnUse" x1="-483.21" y1="266.5859" x2="-482.2446" y2="266.5859" gradientTransform="matrix(-41.0467 -41.0467 -41.0467 41.0467 -8836.4658 -30723.1094)">
			<stop  offset="0" style="stop-color:#DCDDDE"/>
			<stop  offset="0.3204" style="stop-color:#A4BEA4"/>
			<stop  offset="0.9918" style="stop-color:#009444"/>
			<stop  offset="1" style="stop-color:#009444"/>
		</linearGradient>
		<polygon clip-path="url(#SVGID_7_)" fill="url(#SVGID_8_)" points="44.694,131.312 -43.022,42.976 44.694,-45.36 132.411,42.976 
					"/>
	</g>
	<g>
		<defs>
			<path id="SVGID_9_" d="M49.26,19.808c-1.218,0.005-1.614,0.416-1.636,1.653c-0.007,0.429-0.001,0.858-0.001,1.382
				c-2.197,0-4.277,0-6.357,0c-1.453,0-1.452,0.001-1.677,1.407c-0.01,0.057-0.085,0.102-0.173,0.2c-2.312,0-4.668-0.001-7.023,0
				c-1.456,0.001-1.47,0.011-1.47,1.469c-0.001,17.839-0.002,35.678,0,53.517c0,1.403,0.04,1.442,1.4,1.442
				c13.438,0,26.874,0.001,40.311,0c1.312,0,1.363-0.047,1.363-1.38c0.002-17.905,0.003-35.812,0-53.719
				c0-1.271-0.061-1.327-1.304-1.329c-2.421-0.002-4.84,0-7.304,0c-0.269-1.606-0.269-1.607-1.771-1.607c-2.078,0-4.155,0-6.321,0
				c0-0.518,0.005-0.917-0.001-1.317c-0.016-1.309-0.402-1.714-1.672-1.719c-1.061-0.004-2.122-0.007-3.183-0.007
				S50.32,19.803,49.26,19.808"/>
		</defs>
		<clipPath id="SVGID_10_">
			<use xlink:href="#SVGID_9_"  overflow="visible"/>
		</clipPath>
		
			<linearGradient id="SVGID_11_" gradientUnits="userSpaceOnUse" x1="-483.5391" y1="266.7891" x2="-482.5801" y2="266.7891" gradientTransform="matrix(44.929 0 0 -44.929 21755.8047 12036.876)">
			<stop  offset="0" style="stop-color:#DCDDDE"/>
			<stop  offset="0.3204" style="stop-color:#A4BEA4"/>
			<stop  offset="0.9918" style="stop-color:#009444"/>
			<stop  offset="1" style="stop-color:#009444"/>
		</linearGradient>
		<rect x="30.921" y="19.8" clip-path="url(#SVGID_10_)" fill="url(#SVGID_11_)" width="43.078" height="61.079"/>
	</g>
	<path fill="#FFFFFF" d="M63.93,22.821c-0.269-1.605-0.269-1.605-1.771-1.606c-2.078,0-4.155,0-6.32,0
		c0-0.518,0.004-0.919-0.001-1.317c-0.016-1.309-0.402-1.714-1.672-1.719c-2.122-0.009-4.244-0.01-6.366,0
		c-1.217,0.006-1.614,0.417-1.635,1.654c-0.008,0.429-0.001,0.858-0.001,1.382c-2.197,0-4.278,0-6.358,0
		c-1.453,0.001-1.451,0.001-1.676,1.406c-0.01,0.056-0.084,0.103-0.172,0.201c-2.313,0-4.669-0.001-7.024,0
		c-1.456,0.001-1.47,0.011-1.47,1.468c-0.001,17.839-0.001,35.677,0,53.517c0,1.405,0.04,1.442,1.4,1.442c13.438,0,26.873,0,40.31,0
		c1.313-0.001,1.364-0.048,1.364-1.378c0.002-17.907,0.002-35.813-0.001-53.72c0-1.272-0.06-1.327-1.303-1.329
		C68.812,22.819,66.394,22.821,63.93,22.821"/>
	<g opacity="0.6">
		<g>
			<defs>
				<rect id="SVGID_12_" x="29.463" y="18.172" width="43.075" height="61.077"/>
			</defs>
			<clipPath id="SVGID_13_">
				<use xlink:href="#SVGID_12_"  overflow="visible"/>
			</clipPath>
			<path clip-path="url(#SVGID_13_)" fill="#4BBA77" d="M63.93,22.82c2.464,0,4.884-0.002,7.304,0.003
				c1.243,0.001,1.303,0.057,1.303,1.328c0.003,17.907,0.003,35.813,0.001,53.72c0,1.331-0.051,1.377-1.363,1.377
				c-13.438,0.001-26.873,0.001-40.31,0c-1.361,0-1.4-0.037-1.4-1.442c-0.002-17.838-0.002-35.678,0-53.516
				c0-1.456,0.013-1.467,1.469-1.467c2.355-0.003,4.711-0.001,7.024-0.001c0.088-0.1,0.162-0.146,0.172-0.2
				c0.225-1.405,0.223-1.406,1.676-1.406c2.08,0,4.162,0,6.359,0c0-0.523-0.008-0.953,0.001-1.384
				c0.02-1.237,0.417-1.648,1.635-1.653c2.122-0.009,4.243-0.008,6.365-0.001c1.271,0.005,1.656,0.41,1.672,1.72
				c0.005,0.399,0.001,0.8,0.001,1.318c2.165,0,4.242,0,6.32,0C63.662,21.216,63.662,21.216,63.93,22.82 M63.925,26.871
				c-0.251,1.625-0.251,1.626-1.776,1.626c-7.408,0-14.814,0-22.221,0c-1.572,0-1.572-0.001-1.869-1.632
				c-0.871,0-1.769-0.003-2.666,0.001c-1.323,0.005-1.363,0.043-1.363,1.362c0,15.19,0,30.379,0,45.569
				c0,1.388,0.002,1.391,1.43,1.391c10.335,0.001,20.672,0,31.008,0c1.504,0,1.504-0.001,1.504-1.521c0-15.087,0-30.175,0-45.262
				c0-0.237,0.087-0.529-0.02-0.7c-0.195-0.315-0.484-0.771-0.768-0.797C66.118,26.815,65.04,26.871,63.925,26.871 M52.24,20.478
				c-0.324-0.231-0.732-0.734-1.212-0.816c-0.726-0.125-1.198,0.411-1.201,1.16c-0.003,0.705,0.452,1.149,1.138,1.167
				C51.71,22.008,52.106,21.53,52.24,20.478"/>
		</g>
	</g>
	<path fill="#FFFFFF" d="M63.925,26.871c1.115,0,2.193-0.057,3.259,0.038c0.283,0.024,0.572,0.481,0.768,0.797
		c0.106,0.171,0.021,0.464,0.021,0.7c0,15.087,0,30.175,0,45.263c0,1.519-0.001,1.52-1.505,1.52c-10.337,0-20.673,0-31.008,0
		c-1.428,0-1.43-0.003-1.43-1.391c-0.002-15.19-0.002-30.379,0-45.569c0-1.319,0.04-1.357,1.363-1.362
		c0.898-0.004,1.795-0.001,2.666-0.001c0.297,1.631,0.297,1.632,1.87,1.632c7.405,0,14.812,0,22.219,0
		C63.674,28.497,63.674,28.495,63.925,26.871 M61.273,33.83h-23.02v1.311h23.02V33.83z M61.281,37.584H38.257v1.3h23.024V37.584z
		 M55.809,41.271H38.272v1.344h17.536V41.271z"/>
	<g opacity="0.6">
		<g>
			<defs>
				<rect id="SVGID_14_" x="38.254" y="33.83" width="23.02" height="1.311"/>
			</defs>
			<clipPath id="SVGID_15_">
				<use xlink:href="#SVGID_14_"  overflow="visible"/>
			</clipPath>
			<rect x="38.254" y="33.83" clip-path="url(#SVGID_15_)" fill="#4BBA77" width="23.02" height="1.311"/>
		</g>
	</g>
	<g opacity="0.6">
		<g>
			<defs>
				<rect id="SVGID_16_" x="38.256" y="37.584" width="23.025" height="1.3"/>
			</defs>
			<clipPath id="SVGID_17_">
				<use xlink:href="#SVGID_16_"  overflow="visible"/>
			</clipPath>
			<rect x="38.257" y="37.584" clip-path="url(#SVGID_17_)" fill="#4BBA77" width="23.024" height="1.3"/>
		</g>
	</g>
	<g opacity="0.6">
		<g>
			<defs>
				<rect id="SVGID_18_" x="38.272" y="41.271" width="17.536" height="1.344"/>
			</defs>
			<clipPath id="SVGID_19_">
				<use xlink:href="#SVGID_18_"  overflow="visible"/>
			</clipPath>
			<rect x="38.272" y="41.271" clip-path="url(#SVGID_19_)" fill="#4BBA77" width="17.536" height="1.344"/>
		</g>
	</g>
	<g opacity="0.6">
		<g>
			<defs>
				<rect id="SVGID_20_" x="38.254" y="45.946" width="23.02" height="1.311"/>
			</defs>
			<clipPath id="SVGID_21_">
				<use xlink:href="#SVGID_20_"  overflow="visible"/>
			</clipPath>
			<rect x="38.254" y="45.946" clip-path="url(#SVGID_21_)" fill="#4BBA77" width="23.02" height="1.311"/>
		</g>
	</g>
	<g opacity="0.6">
		<g>
			<defs>
				<rect id="SVGID_22_" x="38.256" y="49.7" width="23.025" height="1.3"/>
			</defs>
			<clipPath id="SVGID_23_">
				<use xlink:href="#SVGID_22_"  overflow="visible"/>
			</clipPath>
			<rect x="38.257" y="49.7" clip-path="url(#SVGID_23_)" fill="#4BBA77" width="23.024" height="1.3"/>
		</g>
	</g>
	<g opacity="0.6">
		<g>
			<defs>
				<rect id="SVGID_24_" x="38.272" y="53.388" width="17.536" height="1.345"/>
			</defs>
			<clipPath id="SVGID_25_">
				<use xlink:href="#SVGID_24_"  overflow="visible"/>
			</clipPath>
			<rect x="38.272" y="53.388" clip-path="url(#SVGID_25_)" fill="#4BBA77" width="17.536" height="1.345"/>
		</g>
	</g>
</g>
</svg>
