<?xml version="1.0" encoding="utf-8"?>
<!-- Generator: Adobe Illustrator 16.0.0, SVG Export Plug-In . SVG Version: 6.00 Build 0)  -->
<!DOCTYPE svg PUBLIC "-//W3C//DTD SVG 1.1//EN" "http://www.w3.org/Graphics/SVG/1.1/DTD/svg11.dtd">
<svg version="1.1" id="Layer_1" xmlns="http://www.w3.org/2000/svg" xmlns:xlink="http://www.w3.org/1999/xlink" x="0px" y="0px"
	 width="102px" height="102px" viewBox="0 0 102 102" enable-background="new 0 0 102 102" xml:space="preserve">
<g>
	<path fill="#4BBA77" d="M87.167,14.938c-19.778-19.917-51.842-19.917-71.619,0c-19.778,19.917-19.778,52.209,0,72.125
		c19.776,19.917,51.84,19.917,71.619,0C106.945,67.146,106.945,34.854,87.167,14.938"/>
	<g opacity="0.6">
		<g>
			<defs>
				<rect id="SVGID_1_" x="30.306" y="39.919" width="71.694" height="61.629"/>
			</defs>
			<clipPath id="SVGID_2_">
				<use xlink:href="#SVGID_1_"  overflow="visible"/>
			</clipPath>
			<g clip-path="url(#SVGID_2_)">
				<defs>
					<path id="SVGID_3_" d="M89.414,39.919L102,51.55c0,0,0,41.621-45.157,49.998c-6.632-9.658-21.447-33.858-26.538-39.077
						c1.798,0.203,16.239,5.085,16.239,5.085S29.849,48.771,31.328,48.11c1.479-0.662,15.037,5.449,20.159,6.127
						c7.455-2.793,11.847-4.68,12.383-6.127C65.726,43.104,82.314,42.354,89.414,39.919"/>
				</defs>
				<clipPath id="SVGID_4_">
					<use xlink:href="#SVGID_3_"  overflow="visible"/>
				</clipPath>
				
					<linearGradient id="SVGID_5_" gradientUnits="userSpaceOnUse" x1="-46.0371" y1="265.998" x2="-45.076" y2="265.998" gradientTransform="matrix(-68.6824 -24.9983 -24.9983 68.6824 3581.5762 -19339.3555)">
					<stop  offset="0" style="stop-color:#FFFFFF"/>
					<stop  offset="0.1112" style="stop-color:#F9FAFA"/>
					<stop  offset="0.2172" style="stop-color:#EFEFF0"/>
					<stop  offset="0.3212" style="stop-color:#DFE0E1"/>
					<stop  offset="0.4239" style="stop-color:#C8CACC"/>
					<stop  offset="0.5257" style="stop-color:#ACAEB0"/>
					<stop  offset="0.6268" style="stop-color:#8A8C8F"/>
					<stop  offset="0.7257" style="stop-color:#656668"/>
					<stop  offset="0.7395" style="stop-color:#5F6062"/>
					<stop  offset="1" style="stop-color:#5F6062"/>
				</linearGradient>
				<polygon clip-path="url(#SVGID_4_)" fill="url(#SVGID_5_)" points="93.56,124.9 10.181,94.338 38.289,16.566 121.668,47.129 
									"/>
			</g>
		</g>
	</g>
	<g opacity="0.16">
		<g>
			<defs>
				<rect id="SVGID_6_" x="79.508" y="42.542" width="21.588" height="44.107"/>
			</defs>
			<clipPath id="SVGID_7_">
				<use xlink:href="#SVGID_6_"  overflow="visible"/>
			</clipPath>
			<g clip-path="url(#SVGID_7_)">
				<defs>
					<path id="SVGID_8_" d="M86.743,86.649c-3.884-4.322-4.225-5.623-7.235-8.356c1.797,0.203,6.023-0.26,6.023-0.26
						s-1.23-5.41-3.088-11.33c-0.131-0.418-1.333-1.17-1.379-1.616c-0.875-8.332,1.176-18.361,0.639-22.545
						c8.599,7.016,19.639,15.211,19.389,16.735"/>
				</defs>
				<clipPath id="SVGID_9_">
					<use xlink:href="#SVGID_8_"  overflow="visible"/>
				</clipPath>
				
					<linearGradient id="SVGID_10_" gradientUnits="userSpaceOnUse" x1="-38.3799" y1="268.6602" x2="-37.4177" y2="268.6602" gradientTransform="matrix(-23.4274 -8.5269 -8.5269 23.4274 1489.8567 -6553.8423)">
					<stop  offset="0" style="stop-color:#FFFFFF"/>
					<stop  offset="0.1112" style="stop-color:#F9FAFA"/>
					<stop  offset="0.2172" style="stop-color:#EFEFF0"/>
					<stop  offset="0.3212" style="stop-color:#DFE0E1"/>
					<stop  offset="0.4239" style="stop-color:#C8CACC"/>
					<stop  offset="0.5257" style="stop-color:#ACAEB0"/>
					<stop  offset="0.6268" style="stop-color:#8A8C8F"/>
					<stop  offset="0.7257" style="stop-color:#656668"/>
					<stop  offset="0.7395" style="stop-color:#5F6062"/>
					<stop  offset="1" style="stop-color:#5F6062"/>
				</linearGradient>
				<polygon clip-path="url(#SVGID_9_)" fill="url(#SVGID_10_)" points="98.788,93.717 65.432,81.49 82.062,35.475 115.418,47.702 
									"/>
			</g>
		</g>
	</g>
	<g>
		<defs>
			<path id="SVGID_11_" d="M0.005,52.854c0.159,12.518,5.824,24.56,13.596,33.072C6.554,77.165,2.307,66.004,2.333,53.852
				C2.397,25.674,25.424,2.728,52.976,2.853C67.5,2.916,80.616,8.897,89.764,18.663C80.922,7.914,66.899,0.211,51.94,0.031
				c-0.226-0.002-0.452-0.005-0.677-0.005C21.991,0.026-0.375,22.832,0.005,52.854"/>
		</defs>
		<clipPath id="SVGID_12_">
			<use xlink:href="#SVGID_11_"  overflow="visible"/>
		</clipPath>
		
			<linearGradient id="SVGID_13_" gradientUnits="userSpaceOnUse" x1="-46.2715" y1="268.2402" x2="-45.3061" y2="268.2402" gradientTransform="matrix(-41.0467 -41.0467 -41.0467 41.0467 9166.3525 -12856.1318)">
			<stop  offset="0" style="stop-color:#DCDDDE"/>
			<stop  offset="0.3204" style="stop-color:#A4BEA4"/>
			<stop  offset="0.9918" style="stop-color:#009444"/>
			<stop  offset="1" style="stop-color:#009444"/>
		</linearGradient>
		<polygon clip-path="url(#SVGID_12_)" fill="url(#SVGID_13_)" points="44.694,131.313 -43.022,42.977 44.694,-45.36 
			132.412,42.977 		"/>
	</g>
	<path fill="#E6E7E8" d="M9.913,43.154c0.56,0.232,0.812,0.369,1.079,0.445c12.735,3.598,25.467,7.201,38.214,10.753
		c0.702,0.195,1.594,0.14,2.282-0.115c8.97-3.345,17.92-6.748,26.875-10.134c0.535-0.203,1.079-0.384,1.771-0.631
		c0.314,7.319,0.619,14.403,0.929,21.615c0.625-0.015,1.144-0.027,1.714-0.039c0.03-0.406,0.081-0.702,0.068-0.994
		c-0.276-6.649-0.53-13.301-0.874-19.946c-0.055-1.058,0.229-1.525,1.202-1.856c2.102-0.715,4.162-1.548,6.239-2.333
		c-0.295-0.348-0.521-0.409-0.75-0.449c-12.8-2.198-25.599-4.404-38.405-6.569c-0.709-0.12-1.501-0.02-2.208,0.164
		c-12.115,3.155-24.223,6.339-36.333,9.521C11.212,42.719,10.719,42.898,9.913,43.154 M72.79,48.11
		c-0.662,0.246-1.168,0.413-1.657,0.617c-6.477,2.705-12.942,5.44-19.442,8.089c-0.76,0.311-1.784,0.386-2.564,0.155
		c-5.043-1.494-10.052-3.109-15.076-4.673c-2.418-0.752-4.845-1.478-7.409-2.258c0.146,3.504,0.247,6.771,0.459,10.03
		c0.03,0.467,0.502,1.102,0.936,1.312c2.616,1.257,5.233,2.538,7.939,3.574c4.766,1.826,9.738,2.961,14.842,2.693
		c8.267-0.431,15.25-4.216,21.718-9.114c0.313-0.237,0.65-0.713,0.64-1.067C73.095,54.411,72.936,51.356,72.79,48.11 M85.53,78.033
		c-0.773-3.837-1.515-7.511-2.345-11.626c-0.925,0.432-2.243,0.68-2.319,1.139c-0.583,3.51-0.924,7.06-1.357,10.747
		C81.57,78.205,83.448,78.124,85.53,78.033"/>
	<path fill="#E6E7E8" d="M9.913,43.154c0.806-0.256,1.3-0.437,1.806-0.569c12.108-3.182,24.216-6.365,36.333-9.521
		c0.706-0.184,1.499-0.285,2.208-0.165c12.805,2.166,25.605,4.372,38.404,6.571c0.23,0.039,0.455,0.102,0.75,0.448
		c-2.077,0.784-4.138,1.618-6.238,2.333c-0.975,0.331-1.258,0.799-1.202,1.856c0.342,6.646,0.595,13.298,0.872,19.946
		c0.013,0.292-0.039,0.587-0.067,0.993c-0.57,0.014-1.09,0.025-1.713,0.039c-0.311-7.211-0.615-14.295-0.93-21.614
		c-0.694,0.246-1.236,0.429-1.771,0.631c-8.956,3.386-17.905,6.789-26.876,10.134c-0.687,0.255-1.579,0.31-2.282,0.115
		C36.458,50.8,23.727,47.197,10.992,43.6C10.724,43.522,10.473,43.387,9.913,43.154"/>
	<path fill="#E6E7E8" d="M72.791,48.11c0.145,3.246,0.305,6.301,0.387,9.358c0.01,0.354-0.328,0.829-0.64,1.067
		c-6.468,4.897-13.452,8.683-21.718,9.115c-5.105,0.267-10.076-0.868-14.843-2.694c-2.706-1.037-5.323-2.317-7.939-3.574
		c-0.434-0.209-0.906-0.845-0.937-1.312c-0.212-3.259-0.312-6.527-0.458-10.031c2.564,0.781,4.991,1.506,7.409,2.259
		c5.023,1.562,10.031,3.178,15.075,4.672c0.781,0.231,1.805,0.155,2.565-0.155c6.5-2.646,12.964-5.383,19.441-8.088
		C71.622,48.523,72.127,48.356,72.791,48.11"/>
	<path fill="#E6E7E8" d="M85.53,78.033c-2.082,0.091-3.959,0.172-6.022,0.26c0.434-3.688,0.775-7.237,1.357-10.747
		c0.077-0.459,1.394-0.707,2.319-1.139C84.015,70.522,84.756,74.196,85.53,78.033"/>
</g>
</svg>
