<?xml version="1.0" encoding="utf-8"?>
<!-- Generator: Adobe Illustrator 16.0.0, SVG Export Plug-In . SVG Version: 6.00 Build 0)  -->
<!DOCTYPE svg PUBLIC "-//W3C//DTD SVG 1.1//EN" "http://www.w3.org/Graphics/SVG/1.1/DTD/svg11.dtd">
<svg version="1.1" id="Layer_1" xmlns="http://www.w3.org/2000/svg" xmlns:xlink="http://www.w3.org/1999/xlink" x="0px" y="0px"
	 width="102px" height="102px" viewBox="0 0 102 102" enable-background="new 0 0 102 102" xml:space="preserve">
<g>
	<path fill="#4BBA77" d="M87.354,14.972c-19.777-19.813-51.842-19.813-71.619,0c-19.777,19.814-19.777,51.938,0,71.751
		c19.776,19.814,51.841,19.814,71.619,0C107.132,66.91,107.132,34.786,87.354,14.972"/>
	<g opacity="0.37">
		<g>
			<defs>
				<rect id="SVGID_1_" x="22.63" y="49.488" width="77.832" height="52.209"/>
			</defs>
			<clipPath id="SVGID_2_">
				<use xlink:href="#SVGID_1_"  overflow="visible"/>
			</clipPath>
			<g clip-path="url(#SVGID_2_)">
				<defs>
					<path id="SVGID_3_" d="M86.833,49.488l13.629,13.514c0,0-7.305,41.13-56.442,38.582c-8.869-11.953-16.302-23.076-21.39-28.269
						c1.796,0.202,24.103-5.997,24.103-5.997s4.677,0.501,6.156-0.158c1.479-0.658-2.117-4.831,3.006-4.158
						c10.744-1.467,14.779-1.866,15.315-3.307C73.065,54.716,79.732,51.91,86.833,49.488"/>
				</defs>
				<clipPath id="SVGID_4_">
					<use xlink:href="#SVGID_3_"  overflow="visible"/>
				</clipPath>
				
					<linearGradient id="SVGID_5_" gradientUnits="userSpaceOnUse" x1="-293.3481" y1="221.7588" x2="-292.3887" y2="221.7588" gradientTransform="matrix(-68.6178 -24.9748 -24.9748 68.6178 -14498.6758 -22455.1172)">
					<stop  offset="0" style="stop-color:#FFFFFF"/>
					<stop  offset="0.1112" style="stop-color:#F9FAFA"/>
					<stop  offset="0.2172" style="stop-color:#EFEFF0"/>
					<stop  offset="0.3212" style="stop-color:#DFE0E1"/>
					<stop  offset="0.4239" style="stop-color:#C8CACC"/>
					<stop  offset="0.5257" style="stop-color:#ACAEB0"/>
					<stop  offset="0.6268" style="stop-color:#8A8C8F"/>
					<stop  offset="0.7257" style="stop-color:#656668"/>
					<stop  offset="0.7395" style="stop-color:#5F6062"/>
					<stop  offset="1" style="stop-color:#5F6062"/>
				</linearGradient>
				<polygon clip-path="url(#SVGID_4_)" fill="url(#SVGID_5_)" points="91.357,129.193 5.1,97.739 31.734,24.427 117.992,55.88 				
					"/>
			</g>
		</g>
	</g>
	<g>
		<defs>
			<path id="SVGID_6_" d="M0.192,52.25c0.158,12.453,6.133,24.284,13.903,32.754C7.051,76.287,2.494,65.332,2.522,53.243
				C2.584,25.21,25.613,2.384,53.163,2.508c14.525,0.064,27.64,6.014,36.788,15.729C81.111,7.543,67.087-0.12,52.127-0.299
				c-0.226-0.003-0.451-0.004-0.677-0.004C22.18-0.303-0.187,22.384,0.192,52.25"/>
		</defs>
		<clipPath id="SVGID_7_">
			<use xlink:href="#SVGID_6_"  overflow="visible"/>
		</clipPath>
		
			<linearGradient id="SVGID_8_" gradientUnits="userSpaceOnUse" x1="-292.8813" y1="223.1934" x2="-291.9206" y2="223.1934" gradientTransform="matrix(-41.0467 -41.0467 -41.0467 41.0467 -2805.0098 -21130.3008)">
			<stop  offset="0" style="stop-color:#DCDDDE"/>
			<stop  offset="0.3204" style="stop-color:#A4BEA4"/>
			<stop  offset="0.9918" style="stop-color:#009444"/>
			<stop  offset="1" style="stop-color:#009444"/>
		</linearGradient>
		<polygon clip-path="url(#SVGID_7_)" fill="url(#SVGID_8_)" points="44.881,130.156 -42.762,42.351 44.881,-45.455 132.525,42.351 
					"/>
	</g>
	<g opacity="0.1">
		<g>
			<defs>
				<rect id="SVGID_9_" x="75.396" y="47.469" width="25.066" height="38.224"/>
			</defs>
			<clipPath id="SVGID_10_">
				<use xlink:href="#SVGID_9_"  overflow="visible"/>
			</clipPath>
			<g clip-path="url(#SVGID_10_)">
				<defs>
					<path id="SVGID_11_" d="M100.462,63.002c-2.605-2.125-8.134-8.556-16.733-15.533c0.537,4.162-9.152,13.216-8.278,21.506
						c0.047,0.443,1.118,1.261,1.38,1.607c4.342,5.761,11.74,15.11,11.74,15.11"/>
				</defs>
				<clipPath id="SVGID_12_">
					<use xlink:href="#SVGID_11_"  overflow="visible"/>
				</clipPath>
				
					<linearGradient id="SVGID_13_" gradientUnits="userSpaceOnUse" x1="-287.3608" y1="221.334" x2="-286.4008" y2="221.334" gradientTransform="matrix(-22.2155 -8.0858 -8.0858 22.2155 -4496.4004 -7170.2451)">
					<stop  offset="0" style="stop-color:#FFFFFF"/>
					<stop  offset="0.1112" style="stop-color:#F9FAFA"/>
					<stop  offset="0.2172" style="stop-color:#EFEFF0"/>
					<stop  offset="0.3212" style="stop-color:#DFE0E1"/>
					<stop  offset="0.4239" style="stop-color:#C8CACC"/>
					<stop  offset="0.5257" style="stop-color:#ACAEB0"/>
					<stop  offset="0.6268" style="stop-color:#8A8C8F"/>
					<stop  offset="0.7257" style="stop-color:#656668"/>
					<stop  offset="0.7395" style="stop-color:#5F6062"/>
					<stop  offset="1" style="stop-color:#5F6062"/>
				</linearGradient>
				<polygon clip-path="url(#SVGID_12_)" fill="url(#SVGID_13_)" points="97.434,94.027 62.314,81.221 77.604,39.134 112.725,51.94 
									"/>
			</g>
		</g>
	</g>
	<path fill="#FFFFFF" d="M43.936,52.42H21.275c-0.03,0.195-0.065,0.321-0.065,0.447c-0.003,5.956-0.019,11.912,0.006,17.868
		c0.007,1.742,0.966,2.577,2.83,2.578c16.179,0.003,32.358,0.003,48.537-0.001c2.079-0.001,2.98-0.899,2.985-2.963
		c0.011-5.696,0.009-11.392,0.008-17.088c0-0.279-0.043-0.558-0.073-0.918c-2.635,0-5.195,0-7.756,0
		c-5.035,0-10.071,0.007-15.107-0.01c-0.639-0.003-1.067,0.045-1.001,0.868c0.066,0.809,0.032,1.627,0.009,2.439
		c-0.038,1.302-0.758,2.054-2.065,2.102c-1.168,0.041-2.34,0.044-3.509-0.003c-1.373-0.054-2.109-0.859-2.133-2.259
		C43.924,54.481,43.936,53.48,43.936,52.42 M57.062,35.107H38.534c0,1.118,0.019,2.156-0.006,3.193
		c-0.027,1.173-0.756,2.019-1.917,2.053c-2.013,0.062-4.03,0.07-6.043-0.003c-1.374-0.05-2.174-0.995-2.162-2.374
		c0.01-0.956,0.079-1.91,0.121-2.874c-1.974-0.266-1.97-0.262-3.288,1.189c-1.948,2.143-3.904,4.275-5.847,6.421
		c-0.213,0.234-0.519,0.519-0.523,0.784c-0.042,2.331-0.024,4.663-0.024,6.997h25.092c0-0.391-0.003-0.711,0-1.03
		c0.016-1.807,0.659-2.444,2.487-2.458c1.072-0.006,2.145-0.019,3.217,0.006c1.255,0.029,1.964,0.756,2.008,2.022
		c0.017,0.479,0.002,0.957,0.002,1.479h25.705c0-2.16,0.035-4.27-0.027-6.374c-0.014-0.493-0.247-1.074-0.572-1.446
		c-1.881-2.156-3.942-4.168-5.699-6.417c-1.21-1.549-2.617-1.273-4.014-1.191c0.056,0.985,0.138,1.885,0.148,2.785
		c0.019,1.531-0.83,2.46-2.354,2.5c-1.883,0.049-3.769,0.04-5.652,0.005c-1.341-0.026-2.097-0.828-2.117-2.159
		C57.05,37.208,57.062,36.204,57.062,35.107 M58.826,38.62c1.677,0,3.169,0.018,4.662-0.004c2.154-0.032,1.943,0.452,1.941-2.092
		c-0.001-0.606-0.317-0.891-0.91-0.893c-0.65-0.003-1.301,0.021-1.949-0.015c-1.145-0.063-1.346-0.287-1.347-1.426
		c-0.004-2.571,0.005-5.144-0.004-7.717c-0.004-1.575-0.593-2.218-2.168-2.222c-7.506-0.019-15.015-0.019-22.522,0
		c-1.567,0.004-2.151,0.646-2.159,2.232c-0.01,2.311-0.003,4.623-0.003,6.936c0,2.206,0,2.206-2.19,2.207
		c-2.05,0.001-2.021,0.001-2.026,2.036c-0.002,0.717,0.215,0.987,0.945,0.968c1.56-0.039,3.123-0.059,4.68,0.007
		c0.846,0.036,1.024-0.281,1.013-1.062c-0.041-2.864-0.018-5.731-0.015-8.596c0.001-1.346,0.362-1.704,1.743-1.711
		c1.431-0.008,2.86-0.002,4.291-0.002c4.777,0,9.555-0.004,14.332,0.004c1.312,0.001,1.685,0.387,1.687,1.676
		c0.004,1.985,0.001,3.972,0.001,5.958V38.62z M45.721,48.799c0,2.291-0.01,4.492,0.02,6.692c0.003,0.163,0.294,0.455,0.458,0.461
		c1.189,0.039,2.382,0.021,3.592,0.021v-7.174H45.721z"/>
	<path fill="#E6E7E8" d="M43.937,52.419c0,1.062-0.014,2.063,0.002,3.063c0.022,1.399,0.761,2.204,2.134,2.258
		c1.168,0.046,2.34,0.043,3.508,0.002c1.308-0.046,2.028-0.8,2.066-2.1c0.022-0.814,0.056-1.632-0.01-2.439
		c-0.066-0.824,0.362-0.871,1.001-0.869c5.036,0.017,10.072,0.01,15.107,0.01c2.561,0,5.122,0,7.757,0
		c0.029,0.359,0.073,0.639,0.073,0.917c0.001,5.696,0.002,11.393-0.009,17.088c-0.004,2.064-0.906,2.963-2.983,2.963
		c-16.179,0.005-32.358,0.005-48.537,0.001c-1.864,0-2.823-0.836-2.831-2.576c-0.025-5.956-0.009-11.913-0.006-17.869
		c0-0.126,0.036-0.252,0.064-0.448H43.937z"/>
	<path fill="#E6E7E8" d="M57.062,35.106c0,1.098-0.012,2.103,0.003,3.107c0.021,1.331,0.777,2.133,2.117,2.159
		c1.884,0.036,3.771,0.044,5.654-0.004c1.524-0.04,2.373-0.969,2.354-2.501c-0.011-0.899-0.094-1.799-0.148-2.783
		c1.396-0.083,2.802-0.357,4.012,1.191c1.758,2.249,3.818,4.26,5.7,6.417c0.324,0.371,0.557,0.953,0.571,1.444
		c0.062,2.106,0.027,4.215,0.027,6.375H51.651c0-0.521,0.013-1.001-0.003-1.479c-0.044-1.266-0.753-1.993-2.009-2.022
		c-1.07-0.025-2.143-0.012-3.216-0.005c-1.828,0.012-2.47,0.65-2.486,2.457c-0.003,0.319-0.001,0.639-0.001,1.03H18.845
		c0-2.333-0.019-4.666,0.023-6.998c0.003-0.266,0.312-0.549,0.523-0.782c1.943-2.146,3.9-4.279,5.847-6.422
		c1.319-1.451,1.313-1.455,3.289-1.19c-0.043,0.964-0.112,1.919-0.121,2.875c-0.014,1.379,0.787,2.324,2.162,2.374
		c2.011,0.073,4.03,0.063,6.042,0.004c1.16-0.034,1.889-0.88,1.917-2.054c0.024-1.038,0.005-2.076,0.005-3.194H57.062z"/>
	<path fill="#E6E7E8" d="M58.826,38.62v-3.715c0-1.985,0.003-3.973-0.001-5.959c-0.002-1.288-0.375-1.673-1.686-1.675
		c-4.778-0.009-9.555-0.004-14.333-0.004c-1.431,0-2.86-0.006-4.29,0.002c-1.382,0.008-1.744,0.366-1.745,1.711
		c-0.002,2.865-0.025,5.731,0.016,8.596c0.012,0.781-0.167,1.099-1.014,1.062c-1.557-0.064-3.12-0.046-4.679-0.006
		c-0.729,0.019-0.948-0.251-0.946-0.968c0.006-2.035-0.021-2.035,2.027-2.036c2.191-0.002,2.191-0.002,2.191-2.208
		c0-2.312-0.007-4.623,0.002-6.935c0.007-1.587,0.592-2.229,2.159-2.232c7.507-0.018,15.016-0.018,22.523,0
		c1.574,0.003,2.162,0.646,2.167,2.223c0.008,2.572,0,5.145,0.003,7.716c0.002,1.139,0.203,1.362,1.347,1.426
		c0.648,0.036,1.3,0.011,1.951,0.014c0.592,0.003,0.908,0.288,0.908,0.894c0.002,2.543,0.214,2.06-1.939,2.092
		C61.996,38.638,60.502,38.62,58.826,38.62"/>
	<path fill="#E6E7E8" d="M45.721,48.799h4.069v7.174c-1.209,0-2.402,0.019-3.592-0.021c-0.164-0.006-0.455-0.298-0.458-0.461
		C45.711,53.291,45.721,51.09,45.721,48.799"/>
	<path fill="#4BBA77" d="M24.301,71.033c1.69,0.062,48.886,0,48.886,0s-35.771-0.501-47.326-2.151
		c-2.543-0.364-2.299-13.808-2.871-13.938C22.514,54.836,22.611,70.973,24.301,71.033"/>
	<polygon fill="#4BBA77" points="73.187,43.481 55.894,43.481 72.536,42.048 	"/>
	<path fill="#E6E7E8" d="M67.637,58.158c0-1.602,0.306-3.104,0.919-4.509c0.611-1.404,1.443-2.633,2.492-3.683
		c1.049-1.053,2.275-1.883,3.677-2.498c1.402-0.613,2.902-0.921,4.501-0.921s3.1,0.308,4.502,0.921
		c1.401,0.615,2.627,1.445,3.677,2.498c1.048,1.05,1.879,2.278,2.493,3.683c0.611,1.404,0.811,2.911,0.918,4.509
		c0.278,4.153-3.312,9.423-7.088,10.69c-1.451,0.489-2.903,0.921-4.502,0.921s-3.099-0.305-4.501-0.921
		c-1.402-0.613-2.627-1.446-3.677-2.496c-1.049-1.05-1.88-2.278-2.492-3.683C67.943,61.265,67.637,59.762,67.637,58.158"/>
	<path fill="#4BBA77" d="M86.833,49.488c-2.355-2.102-6.77-4.061-10.14-3.585c-6.67,0.939-10.997,6.852-9.878,13.606
		c0.463,2.796,3.145,6.014,5.184,7.649c-1.883-1.716-3.219-4.066-3.628-6.787c-0.947-6.308,3.449-12.233,9.649-13.155
		C81.289,46.731,84.442,47.618,86.833,49.488"/>
	<path fill="#4BBA77" d="M80.609,51.92c2.568,0,4.08,0.759,4.08,1.642c0,0.439-0.428,0.904-1.026,0.904
		c-0.969,0-1.341-0.686-3.053-0.686c-3.107,0-4.667,2.597-4.667,4.799c0,2.204,1.559,4.8,4.667,4.8c1.77,0,2.226-0.735,3.024-0.735
		c0.57,0,0.97,0.318,0.97,0.905c0,0.808-1.397,1.688-3.994,1.688c-4.62,0-6.845-3.206-6.845-6.658
		C73.764,55.129,75.99,51.92,80.609,51.92"/>
</g>
</svg>
