<?xml version="1.0" encoding="utf-8"?>
<!-- Generator: Adobe Illustrator 16.0.0, SVG Export Plug-In . SVG Version: 6.00 Build 0)  -->
<!DOCTYPE svg PUBLIC "-//W3C//DTD SVG 1.1//EN" "http://www.w3.org/Graphics/SVG/1.1/DTD/svg11.dtd">
<svg version="1.1" id="Layer_1" xmlns="http://www.w3.org/2000/svg" xmlns:xlink="http://www.w3.org/1999/xlink" x="0px" y="0px"
	 width="102px" height="102px" viewBox="0 0 102 102" enable-background="new 0 0 102 102" xml:space="preserve">
<g>
	<path fill="#BCBEC0" d="M87.425,15.291c-19.836-19.835-51.995-19.835-71.83,0c-19.836,19.836-19.836,51.996,0,71.83
		c19.834,19.837,51.993,19.837,71.83,0C107.26,67.287,107.26,35.127,87.425,15.291"/>
	<g>
		<defs>
			<path id="SVGID_1_" d="M71.232,60.064c-0.537,1.442-12.285-15.488-21.524-24.856c-5.138-0.674-8.405,19.214-9.888,19.875
				c-1.483,0.658,6.863,12.611,6.863,12.611S24.311,79.69,22.509,79.487C27.613,84.686,44.35,94.027,55.686,102
				c44.954-5.809,46.615-50.247,46.615-50.247L72.868,18.92C65.746,21.346,73.093,55.08,71.232,60.064"/>
		</defs>
		<clipPath id="SVGID_2_">
			<use xlink:href="#SVGID_1_"  overflow="visible"/>
		</clipPath>
		
			<linearGradient id="SVGID_3_" gradientUnits="userSpaceOnUse" x1="-102.3247" y1="518.4258" x2="-101.3631" y2="518.4258" gradientTransform="matrix(-66.1778 -24.0867 -24.0867 66.1778 5812.5366 -36699.9453)">
			<stop  offset="0" style="stop-color:#BCBEC0"/>
			<stop  offset="0.2134" style="stop-color:#B9BBBD"/>
			<stop  offset="0.4147" style="stop-color:#AFB1B4"/>
			<stop  offset="0.6107" style="stop-color:#A0A2A5"/>
			<stop  offset="0.7395" style="stop-color:#939598"/>
			<stop  offset="1" style="stop-color:#939598"/>
		</linearGradient>
		<polygon clip-path="url(#SVGID_2_)" fill="url(#SVGID_3_)" points="92.967,127.643 -4.192,92.28 31.843,-6.725 129.002,28.638 		
			"/>
	</g>
	<path fill="#F1F2F2" d="M90.028,18.56C81.163,7.854,67.097,0.183,52.094,0.004C22.403-0.349-0.378,22.481,0.005,52.61
		c0.16,12.467,6.151,24.312,13.945,32.79C6.884,76.674,2.313,65.707,2.341,53.605C2.404,25.542,25.5,2.688,53.133,2.812
		C67.7,2.878,80.854,8.833,90.028,18.56"/>
	<path fill="#E6E7E8" d="M49.998,75.688c-0.505-4.459-0.99-8.784-1.482-13.109c-0.513-4.491-1.021-8.981-1.553-13.469
		c-0.077-0.644,0.043-1.145,0.486-1.651c0.942-1.079,1.835-2.204,2.699-3.347c0.206-0.272,0.331-0.693,0.309-1.035
		c-0.091-1.485-0.244-2.967-0.387-4.447c-0.109-1.14-0.24-2.279-0.362-3.422h-4.512v3.026h-3.572v-3.346h-8.32v3.36h-3.664v-3.012
		h-4.487c-0.285,2.688-0.576,5.317-0.825,7.949c-0.027,0.282,0.125,0.639,0.306,0.874c0.688,0.896,1.366,1.814,2.152,2.618
		c0.962,0.983,1.209,2.004,1.032,3.404c-0.933,7.381-1.733,14.779-2.585,22.169c-0.13,1.138-0.3,2.271-0.46,3.458h-2.265v3.778
		h30.028v-3.799H49.998z"/>
	<path fill="#E6E7E8" d="M49.998,75.688h2.539v3.799H22.509v-3.778h2.265c0.16-1.187,0.33-2.319,0.46-3.458
		c0.853-7.391,1.653-14.789,2.585-22.169c0.177-1.4-0.07-2.421-1.032-3.404c-0.787-0.804-1.464-1.722-2.152-2.618
		c-0.18-0.235-0.333-0.591-0.306-0.874c0.25-2.632,0.541-5.261,0.825-7.949h4.487v3.012h3.664v-3.36h8.32v3.346h3.572v-3.026h4.512
		c0.122,1.143,0.253,2.282,0.362,3.422c0.144,1.48,0.296,2.962,0.387,4.447c0.021,0.342-0.104,0.763-0.309,1.035
		c-0.864,1.143-1.756,2.268-2.699,3.347c-0.443,0.506-0.563,1.007-0.486,1.651c0.531,4.488,1.04,8.978,1.553,13.469
		C49.008,66.904,49.493,71.229,49.998,75.688"/>
	<g opacity="0.18">
		<g>
			<defs>
				<rect id="SVGID_4_" x="25.577" y="48.713" width="18.772" height="26.817"/>
			</defs>
			<clipPath id="SVGID_5_">
				<use xlink:href="#SVGID_4_"  overflow="visible"/>
			</clipPath>
			<path clip-path="url(#SVGID_5_)" fill="#58595B" d="M29.364,48.714c0,0,11.886,1.255,14.987,0
				c-4.228,2.152-13.415,2.235-13.415,2.235L26.954,75.53h-1.376L29.364,48.714z"/>
		</g>
	</g>
	<g opacity="0.18">
		<g>
			<defs>
				<rect id="SVGID_6_" x="25.577" y="42.258" width="23.234" height="1.03"/>
			</defs>
			<clipPath id="SVGID_7_">
				<use xlink:href="#SVGID_6_"  overflow="visible"/>
			</clipPath>
			<path clip-path="url(#SVGID_7_)" fill="#58595B" d="M48.812,42.258H25.577c0,0,12.972,2.317,22.572,0"/>
		</g>
	</g>
	<path fill="#E6E7E8" d="M62.688,15.667c1.507,0.823,3.016,1.647,4.574,2.499c0.431-0.722,0.878-1.446,1.298-2.186
		c0.254-0.45,0.494-0.566,0.963-0.213c2.698,2.03,5.201,4.256,7.323,6.901c2.411,3.006,3.551,6.49,3.927,10.255
		c0.169,1.697,0.205,3.413,0.259,5.122c0.206,6.752,0.395,13.504,0.594,20.256c0.008,0.229,0.044,0.458,0.074,0.783h3.415v4.167
		H52.483v-4.169h3.413c0.086-1.33,0.174-2.56,0.242-3.792c0.145-2.562,0.248-5.127,0.441-7.686c0.043-0.577,0.281-1.21,0.619-1.681
		c2.459-3.426,4.967-6.817,7.458-10.222c0.189-0.259,0.368-0.526,0.682-0.978c-0.933,0.301-1.672,0.536-2.408,0.778
		c-1.593,0.526-3.18,1.08-4.784,1.57c-0.362,0.113-0.802,0.087-1.182,0.006c-0.602-0.128-1.171-0.419-1.775-0.53
		c-1.389-0.255-2.278-1.023-2.866-2.304c-0.255-0.559-0.215-0.86,0.167-1.3c3.49-4.002,6.951-8.031,10.442-12.033
		c0.409-0.469,0.561-0.868,0.37-1.497c-0.346-1.146-0.574-2.328-0.851-3.495C62.53,15.836,62.609,15.752,62.688,15.667"/>
	<g opacity="0.18">
		<g>
			<defs>
				<rect id="SVGID_8_" x="58.758" y="28.792" width="18.515" height="17.924"/>
			</defs>
			<clipPath id="SVGID_9_">
				<use xlink:href="#SVGID_8_"  overflow="visible"/>
			</clipPath>
			<path clip-path="url(#SVGID_9_)" fill="#58595B" d="M67.651,33.929l9.622-5.136c0,0-4.993,4.162-17.745,17.923
				c-0.973,0,0,0-0.771-0.035C62.063,41.762,67.651,33.929,67.651,33.929"/>
		</g>
	</g>
	<g opacity="0.18">
		<g>
			<defs>
				<rect id="SVGID_10_" x="68.638" y="17.281" width="3.264" height="1.594"/>
			</defs>
			<clipPath id="SVGID_11_">
				<use xlink:href="#SVGID_10_"  overflow="visible"/>
			</clipPath>
			<path clip-path="url(#SVGID_11_)" fill="#58595B" d="M68.637,18.875l0.784-1.595c0,0,1.241,0.178,2.481,1.595
				C70.071,18.816,68.637,18.875,68.637,18.875"/>
		</g>
	</g>
	<g opacity="0.18">
		<g>
			<defs>
				<rect id="SVGID_12_" x="63.282" y="17.281" width="3.247" height="1.948"/>
			</defs>
			<clipPath id="SVGID_13_">
				<use xlink:href="#SVGID_12_"  overflow="visible"/>
			</clipPath>
			<polygon clip-path="url(#SVGID_13_)" fill="#58595B" points="63.991,19.229 63.282,17.281 66.529,18.875 			"/>
		</g>
	</g>
</g>
</svg>
