<?xml version="1.0" encoding="utf-8"?>
<!-- Generator: Adobe Illustrator 16.0.0, SVG Export Plug-In . SVG Version: 6.00 Build 0)  -->
<!DOCTYPE svg PUBLIC "-//W3C//DTD SVG 1.1//EN" "http://www.w3.org/Graphics/SVG/1.1/DTD/svg11.dtd">
<svg version="1.1" id="Layer_1" xmlns="http://www.w3.org/2000/svg" xmlns:xlink="http://www.w3.org/1999/xlink" x="0px" y="0px"
	 width="102px" height="102px" viewBox="0 0 102 102" enable-background="new 0 0 102 102" xml:space="preserve">
<g>
	<g>
		<path fill="#BCBEC0" d="M87.488,15.292c-19.777-19.836-51.842-19.836-71.619,0c-19.777,19.836-19.777,51.996,0,71.83
			c19.776,19.838,51.841,19.838,71.619,0C107.265,67.288,107.265,35.127,87.488,15.292"/>
		<path fill="#F1F2F2" d="M90.084,18.56C81.244,7.854,67.22,0.183,52.262,0.004C22.658-0.349-0.057,22.481,0.325,52.61
			C0.484,65.078,6.458,76.922,14.229,85.4C7.184,76.674,2.626,65.708,2.654,53.604C2.718,25.542,25.745,2.688,53.295,2.812
			C67.82,2.878,80.937,8.833,90.084,18.56"/>
	</g>
	<g>
		<defs>
			<path id="SVGID_1_" d="M49.104,25.635c-5.375-0.706-8.25,11.158-9.801,11.849c-1.553,0.691-10.614,11.289-10.614,11.289
				s4.366,9.417,8.247,16.588c-3.309,3.006-2.365,2.693-1.369,8.827c5.223,8.997,10.35,20.063,13.884,27.76
				c36.406-1.935,45.11-24.383,45.11-24.383s-20.287-36.45-37.555-66.035C56.444,13.043,48.255,11.531,49.104,25.635"/>
		</defs>
		<clipPath id="SVGID_2_">
			<use xlink:href="#SVGID_1_"  overflow="visible"/>
		</clipPath>
		
			<linearGradient id="SVGID_3_" gradientUnits="userSpaceOnUse" x1="-369.4702" y1="349.2896" x2="-368.5103" y2="349.2896" gradientTransform="matrix(-70.2917 -25.5841 -25.5841 70.2917 -16937.0117 -33935.0547)">
			<stop  offset="0" style="stop-color:#BCBEC0"/>
			<stop  offset="0.2134" style="stop-color:#B9BBBD"/>
			<stop  offset="0.4147" style="stop-color:#AFB1B4"/>
			<stop  offset="0.6107" style="stop-color:#A0A2A5"/>
			<stop  offset="0.7395" style="stop-color:#939598"/>
			<stop  offset="1" style="stop-color:#939598"/>
		</linearGradient>
		<polygon clip-path="url(#SVGID_2_)" fill="url(#SVGID_3_)" points="86.856,123.182 -0.285,91.372 36.395,-9.703 123.535,22.108 		
			"/>
	</g>
	<path fill="#FFFFFF" d="M57.159,55.998c0.162-0.185,0.315-0.337,0.445-0.507c2.184-2.867,4.376-5.729,6.537-8.614
		c0.467-0.623,0.875-1.307,1.213-2.01c2.147-4.451,0.605-10.185-3.441-12.892c-4.449-2.978-10.295-2.398-13.583,1.545
		c-2.602,3.125-4.978,6.439-7.45,9.671c-0.056,0.073-0.069,0.177-0.104,0.273C46.231,47.639,51.675,51.802,57.159,55.998
		 M56.264,57.254c-2.222-1.701-4.349-3.328-6.527-4.995c-0.441,0.58-0.847,1.128-1.268,1.663c-0.483,0.615-1.114,0.996-1.902,0.894
		c-0.476-0.061-0.7,0.129-0.954,0.468c-1.634,2.172-3.285,4.332-4.931,6.496c-0.144,0.188-0.288,0.379-0.437,0.574
		c0.2,0.154,0.323,0.277,0.471,0.355c3.788,2.008,7.495,1.895,11.096-0.466C53.722,60.991,54.848,59.032,56.264,57.254
		 M39.083,61.471c1.884-2.479,3.74-4.912,5.58-7.357c0.093-0.123,0.119-0.377,0.061-0.523c-0.387-0.955-0.134-1.771,0.472-2.535
		c0.374-0.471,0.729-0.956,1.123-1.472c-1.159-0.887-2.226-1.704-3.294-2.521c-1.061-0.811-2.12-1.622-3.228-2.469
		c-1.367,1.896-2.925,3.514-3.675,5.681C34.751,54.231,35.988,59.063,39.083,61.471"/>
	<path fill="#E6E7E8" d="M57.159,55.997c-5.484-4.195-10.926-8.357-16.384-12.533c0.036-0.096,0.05-0.2,0.105-0.273
		c2.473-3.232,4.848-6.547,7.451-9.67c3.286-3.944,9.132-4.523,13.582-1.545c4.047,2.708,5.589,8.441,3.442,12.892
		c-0.339,0.702-0.747,1.386-1.214,2.01c-2.161,2.885-4.354,5.746-6.537,8.613C57.473,55.661,57.321,55.813,57.159,55.997"/>
	<path fill="#E6E7E8" d="M56.264,57.253c-1.416,1.778-2.541,3.737-4.453,4.989c-3.601,2.36-7.308,2.475-11.096,0.467
		c-0.146-0.078-0.269-0.201-0.47-0.354c0.149-0.196,0.293-0.387,0.438-0.576c1.645-2.163,3.296-4.323,4.93-6.495
		c0.254-0.34,0.479-0.528,0.954-0.467c0.788,0.102,1.42-0.279,1.902-0.895c0.421-0.535,0.827-1.082,1.268-1.663
		C51.915,53.926,54.043,55.555,56.264,57.253"/>
	<path fill="#E6E7E8" d="M39.083,61.471c-3.095-2.408-4.332-7.24-2.962-11.197c0.75-2.167,2.308-3.785,3.675-5.681
		c1.108,0.847,2.167,1.659,3.228,2.469c1.068,0.816,2.135,1.634,3.294,2.521c-0.393,0.517-0.749,1.001-1.123,1.472
		c-0.606,0.765-0.858,1.58-0.472,2.535c0.058,0.146,0.032,0.4-0.061,0.523C42.823,56.559,40.967,58.993,39.083,61.471"/>
	<path fill="#E6E7E8" d="M40.266,62.62c-0.105-0.062-0.221-0.105-0.295-0.141c-1.236,1.623-2.623,3.067-3.561,4.763
		c-1.85,3.342-0.669,7.527,2.448,9.526c3.252,2.087,7.496,1.375,9.865-1.719c4.325-5.645,8.61-11.318,12.923-16.973
		c1.594-2.089,4.176-2.909,6.609-2.141c4.021,1.271,5.495,6.065,2.893,9.523c-3.393,4.506-6.823,8.982-10.236,13.473
		c-0.176,0.231-0.353,0.463-0.593,0.779c0.459,0.353,0.883,0.67,1.299,0.996c0.648,0.509,0.686,0.796,0.182,1.467
		c-0.842,1.117-1.691,2.227-2.537,3.339c-0.807,1.06-0.807,1.06-2.004,0.43c-0.331,0.436-0.674,0.879-1.008,1.327
		c-0.357,0.478-0.766,0.576-1.256,0.199c-0.602-0.464-1.203-0.928-1.811-1.384c-0.498-0.374-0.512-0.792-0.148-1.264
		c0.34-0.443,0.677-0.89,1.004-1.319c-0.905-1.028-0.905-1.028-0.068-2.129c0.832-1.094,1.658-2.189,2.496-3.277
		c0.515-0.67,0.799-0.705,1.461-0.211c0.41,0.305,0.814,0.621,1.269,0.969c0.171-0.19,0.324-0.34,0.451-0.508
		c3.446-4.526,6.899-9.047,10.329-13.586c1.809-2.393,1.417-5.283-0.894-6.919c-2.02-1.431-4.799-1.002-6.35,1.024
		c-3.383,4.422-6.735,8.865-10.117,13.285c-1.221,1.596-2.368,3.271-3.762,4.702c-3.125,3.208-8.288,3.268-11.728,0.284
		c-3.303-2.866-3.907-7.977-1.335-11.541c0.96-1.332,1.981-2.617,3.004-3.963 M41.012,60.934c-0.086,0.113-0.149,0.244-0.222,0.367"
		/>
	<path fill="#FFFFFF" d="M40.79,61.301c0.072-0.123,0.135-0.254,0.222-0.367"/>
	<path fill="#E6E7E8" d="M59.825,17.605c-1.798,0.751-3.415,1.431-5.035,2.104c-1.389,0.578-2.419,0.283-3.34-0.949
		c-1.221-1.631-0.635-3.894,1.214-4.686c0.724-0.309,1.448-0.612,2.169-0.924c0.854-0.369,1.703-0.743,2.628-1.147
		c-0.206-0.215-0.319-0.355-0.454-0.473c-2.062-1.811-6.326-2.382-8.79-1.183c-2.751,1.34-4.208,4.091-3.714,7.331
		c0.194,1.269-0.135,2.22-0.882,3.197c-5.637,7.368-11.243,14.759-16.856,22.144c-0.222,0.293-0.453,0.586-0.625,0.908
		c-1.106,2.078,0.213,4.576,2.549,4.846c1.401,0.162,2.402-0.483,3.222-1.562C37.01,40.49,42.125,33.782,47.222,27.06
		c0.986-1.302,2.204-1.817,3.838-1.517c2.094,0.383,4.097,0.083,5.777-1.333c1.537-1.294,2.468-2.984,2.84-4.965
		C59.766,18.766,59.767,18.268,59.825,17.605"/>
</g>
</svg>
