<?xml version="1.0" encoding="utf-8"?>
<!-- Generator: Adobe Illustrator 16.0.0, SVG Export Plug-In . SVG Version: 6.00 Build 0)  -->
<!DOCTYPE svg PUBLIC "-//W3C//DTD SVG 1.1//EN" "http://www.w3.org/Graphics/SVG/1.1/DTD/svg11.dtd">
<svg version="1.1" id="Layer_1" xmlns="http://www.w3.org/2000/svg" xmlns:xlink="http://www.w3.org/1999/xlink" x="0px" y="0px"
	 width="102px" height="102px" viewBox="0 0 102 102" enable-background="new 0 0 102 102" xml:space="preserve">
<g>
	<path fill="#BCBEC0" d="M87.167,14.938c-19.777-19.917-51.842-19.917-71.619,0c-19.777,19.917-19.777,52.209,0,72.125
		c19.776,19.917,51.841,19.917,71.619,0C106.944,67.147,106.944,34.855,87.167,14.938"/>
	<g>
		<defs>
			<path id="SVGID_1_" d="M62.034,48.137c-0.537,1.448-4.929,3.334-12.383,6.127c-5.122-0.677-18.681-6.789-20.159-6.127
				c-1.479,0.663,15.217,19.446,15.217,19.446s-11.99,11.646-13.787,11.443c5.089,5.219,15.473,13.787,24.085,22.548
				c46.356-5.341,46.967-49.027,46.967-49.027L72.539,23.055C65.438,25.489,63.889,43.132,62.034,48.137"/>
		</defs>
		<clipPath id="SVGID_2_">
			<use xlink:href="#SVGID_1_"  overflow="visible"/>
		</clipPath>
		
			<linearGradient id="SVGID_3_" gradientUnits="userSpaceOnUse" x1="-332.605" y1="518.873" x2="-331.643" y2="518.873" gradientTransform="matrix(-70.572 -25.6861 -25.6861 70.572 -10047.9053 -45087.3828)">
			<stop  offset="0" style="stop-color:#BCBEC0"/>
			<stop  offset="0.2134" style="stop-color:#B9BBBD"/>
			<stop  offset="0.4147" style="stop-color:#AFB1B4"/>
			<stop  offset="0.6107" style="stop-color:#A0A2A5"/>
			<stop  offset="0.7395" style="stop-color:#939598"/>
			<stop  offset="1" style="stop-color:#939598"/>
		</linearGradient>
		<polygon clip-path="url(#SVGID_2_)" fill="url(#SVGID_3_)" points="93.322,125.514 2.953,92.389 36.665,-0.884 127.033,32.24 		
			"/>
	</g>
	<path fill="#F1F2F2" d="M89.763,18.664C80.924,7.914,66.9,0.211,51.941,0.032C22.337-0.322-0.378,22.601,0.005,52.854
		C0.163,65.371,5.829,77.414,13.6,85.926C6.554,77.165,2.306,66.005,2.333,53.853c0.063-28.179,23.091-51.125,50.642-51
		C67.5,2.918,80.616,8.897,89.763,18.664"/>
	<path fill="#CCCDCE" d="M65.391,24.45c2.462,0,4.883-0.003,7.302,0.001c1.244,0.002,1.303,0.057,1.303,1.33
		c0.003,17.906,0.003,35.813,0.001,53.719c0,1.331-0.05,1.377-1.363,1.377c-13.438,0.001-26.873,0.001-40.31,0.001
		c-1.36,0-1.4-0.038-1.4-1.443c-0.001-17.839-0.001-35.678,0-53.517c0-1.457,0.013-1.467,1.469-1.468c2.356-0.001,4.711,0,7.024,0
		c0.089-0.1,0.163-0.145,0.173-0.201c0.224-1.406,0.222-1.406,1.676-1.407c2.08,0,4.161,0,6.358,0c0-0.523-0.006-0.953,0.001-1.382
		c0.02-1.238,0.417-1.649,1.635-1.655c2.122-0.009,4.244-0.008,6.365,0c1.271,0.005,1.657,0.41,1.672,1.719
		c0.005,0.4,0.001,0.799,0.001,1.318c2.165,0,4.243,0,6.32,0C65.122,22.844,65.122,22.844,65.391,24.45"/>
	<path fill="#FFFFFF" d="M63.93,22.822c-0.269-1.605-0.269-1.605-1.772-1.606c-2.078,0-4.155,0-6.32,0
		c0-0.518,0.004-0.918-0.001-1.317c-0.016-1.309-0.403-1.715-1.672-1.719c-2.122-0.008-4.244-0.009-6.366,0
		c-1.217,0.005-1.614,0.416-1.635,1.654c-0.007,0.428-0.001,0.858-0.001,1.382c-2.197,0-4.278,0-6.358,0
		c-1.453,0-1.451,0-1.676,1.406c-0.009,0.056-0.084,0.102-0.172,0.201c-2.312,0-4.668-0.001-7.024,0
		c-1.456,0.001-1.47,0.011-1.47,1.468c-0.001,17.839-0.001,35.677,0,53.516c0,1.405,0.041,1.443,1.401,1.443
		c13.438,0,26.874,0,40.31,0c1.312-0.001,1.364-0.048,1.364-1.378c0.002-17.907,0.002-35.813-0.001-53.719
		c0-1.273-0.06-1.328-1.303-1.33C68.813,22.82,66.394,22.822,63.93,22.822"/>
	<path fill="#E6E7E8" d="M63.93,22.821c2.463,0,4.884-0.002,7.303,0.001c1.243,0.002,1.303,0.058,1.303,1.33
		c0.003,17.907,0.003,35.812,0.001,53.719c0,1.331-0.052,1.378-1.363,1.378c-13.438,0.001-26.874,0.001-40.31,0
		c-1.361,0-1.401-0.038-1.401-1.443c-0.002-17.838-0.002-35.677,0-53.516c0-1.457,0.013-1.467,1.469-1.467
		c2.355-0.002,4.711-0.001,7.024-0.001c0.088-0.1,0.163-0.145,0.172-0.2c0.225-1.406,0.223-1.407,1.676-1.407
		c2.081,0,4.162,0,6.359,0c0-0.523-0.007-0.953,0.001-1.382c0.02-1.238,0.417-1.649,1.635-1.654c2.122-0.01,4.243-0.009,6.365,0
		c1.271,0.004,1.656,0.41,1.672,1.719c0.005,0.4,0.001,0.799,0.001,1.318c2.165,0,4.242,0,6.32,0
		C63.663,21.216,63.663,21.216,63.93,22.821 M63.925,26.872c-0.251,1.623-0.251,1.625-1.776,1.625c-7.408,0-14.814,0-22.221,0
		c-1.572,0-1.572-0.001-1.869-1.631c-0.871,0-1.769-0.002-2.666,0.001c-1.324,0.005-1.363,0.043-1.363,1.363
		c-0.001,15.189-0.001,30.378-0.001,45.568c0,1.389,0.003,1.392,1.431,1.392c10.335,0.001,20.671,0,31.007,0
		c1.503,0,1.504-0.001,1.504-1.52c0-15.087,0-30.175,0-45.262c0-0.238,0.086-0.529-0.02-0.7c-0.196-0.315-0.485-0.772-0.768-0.797
		C66.118,26.815,65.04,26.872,63.925,26.872 M52.241,20.478c-0.325-0.232-0.733-0.735-1.212-0.817
		c-0.726-0.125-1.198,0.412-1.202,1.161c-0.002,0.706,0.453,1.15,1.138,1.167C51.71,22.009,52.106,21.531,52.241,20.478"/>
	<path fill="#FFFFFF" d="M63.925,26.871c1.115,0,2.193-0.056,3.259,0.038c0.283,0.025,0.572,0.482,0.768,0.798
		c0.105,0.171,0.021,0.463,0.021,0.7c0,15.088,0,30.176,0,45.263c0,1.518-0.001,1.52-1.505,1.52c-10.337,0-20.672,0-31.007,0
		c-1.428-0.001-1.431-0.003-1.431-1.393c-0.001-15.188-0.001-30.378,0-45.567c0-1.32,0.04-1.359,1.364-1.364
		c0.898-0.002,1.795,0,2.666,0c0.297,1.63,0.297,1.63,1.87,1.631c7.406,0,14.813,0,22.219-0.001
		C63.674,28.496,63.674,28.495,63.925,26.871 M61.274,33.831h-23.02v1.31h23.02V33.831z M61.281,37.585H38.257v1.299h23.024V37.585z
		 M55.809,41.271H38.272v1.344h17.537V41.271z"/>
	<g opacity="0.3">
		<g>
			<defs>
				<rect id="SVGID_4_" x="38.254" y="33.831" width="23.02" height="1.31"/>
			</defs>
			<clipPath id="SVGID_5_">
				<use xlink:href="#SVGID_4_"  overflow="visible"/>
			</clipPath>
			<rect x="38.254" y="33.831" clip-path="url(#SVGID_5_)" fill="#58595B" width="23.02" height="1.31"/>
		</g>
	</g>
	<g opacity="0.3">
		<g>
			<defs>
				<rect id="SVGID_6_" x="38.256" y="37.585" width="23.025" height="1.299"/>
			</defs>
			<clipPath id="SVGID_7_">
				<use xlink:href="#SVGID_6_"  overflow="visible"/>
			</clipPath>
			<rect x="38.257" y="37.585" clip-path="url(#SVGID_7_)" fill="#58595B" width="23.024" height="1.299"/>
		</g>
	</g>
	<g opacity="0.3">
		<g>
			<defs>
				<rect id="SVGID_8_" x="38.272" y="41.271" width="17.537" height="1.345"/>
			</defs>
			<clipPath id="SVGID_9_">
				<use xlink:href="#SVGID_8_"  overflow="visible"/>
			</clipPath>
			<rect x="38.272" y="41.272" clip-path="url(#SVGID_9_)" fill="#58595B" width="17.537" height="1.344"/>
		</g>
	</g>
	<g opacity="0.3">
		<g>
			<defs>
				<rect id="SVGID_10_" x="38.254" y="45.947" width="23.02" height="1.31"/>
			</defs>
			<clipPath id="SVGID_11_">
				<use xlink:href="#SVGID_10_"  overflow="visible"/>
			</clipPath>
			<rect x="38.254" y="45.946" clip-path="url(#SVGID_11_)" fill="#58595B" width="23.02" height="1.311"/>
		</g>
	</g>
	<g opacity="0.3">
		<g>
			<defs>
				<rect id="SVGID_12_" x="38.256" y="49.701" width="23.025" height="1.3"/>
			</defs>
			<clipPath id="SVGID_13_">
				<use xlink:href="#SVGID_12_"  overflow="visible"/>
			</clipPath>
			<rect x="38.257" y="49.701" clip-path="url(#SVGID_13_)" fill="#58595B" width="23.024" height="1.3"/>
		</g>
	</g>
	<g opacity="0.3">
		<g>
			<defs>
				<rect id="SVGID_14_" x="38.272" y="53.388" width="17.537" height="1.345"/>
			</defs>
			<clipPath id="SVGID_15_">
				<use xlink:href="#SVGID_14_"  overflow="visible"/>
			</clipPath>
			<rect x="38.272" y="53.389" clip-path="url(#SVGID_15_)" fill="#58595B" width="17.537" height="1.344"/>
		</g>
	</g>
</g>
</svg>
