<?xml version="1.0" encoding="utf-8"?>
<!-- Generator: Adobe Illustrator 16.0.0, SVG Export Plug-In . SVG Version: 6.00 Build 0)  -->
<!DOCTYPE svg PUBLIC "-//W3C//DTD SVG 1.1//EN" "http://www.w3.org/Graphics/SVG/1.1/DTD/svg11.dtd">
<svg version="1.1" id="Layer_1" xmlns="http://www.w3.org/2000/svg" xmlns:xlink="http://www.w3.org/1999/xlink" x="0px" y="0px"
	 width="102px" height="102px" viewBox="0 0 102 102" enable-background="new 0 0 102 102" xml:space="preserve">
<g>
	<path fill="#BCBEC0" d="M87.167,15.292c-19.777-19.836-51.842-19.836-71.619,0c-19.777,19.836-19.777,51.996,0,71.831
		c19.776,19.837,51.841,19.837,71.619,0C106.945,67.287,106.945,35.127,87.167,15.292"/>
	<path fill="#F1F2F2" d="M89.764,18.56C80.923,7.854,66.899,0.183,51.941,0.004C22.337-0.35-0.377,22.481,0.005,52.61
		C0.163,65.078,6.137,76.922,13.909,85.4C6.863,76.675,2.306,65.708,2.334,53.604C2.397,25.542,25.425,2.688,52.976,2.812
		C67.5,2.878,80.616,8.833,89.764,18.56"/>
</g>
<g>
	<rect x="27.275" y="33.087" fill="#FFFFFF" width="11.001" height="38.482"/>
	<path fill="#FFFFFF" d="M33.125,30.757c-2.841,0-5.151-2.305-5.151-5.176c0-2.846,2.311-5.152,5.151-5.152
		c2.844,0.027,5.151,2.342,5.151,5.152C38.276,28.452,35.969,30.757,33.125,30.757L33.125,30.757z"/>
	<path fill="#FFFFFF" d="M76.726,71.569H65.751V47.79c0-2.783-0.804-4.742-4.212-4.742c-5.688,0-6.788,4.742-6.788,4.742v23.779
		H43.78V33.087h10.971v3.682c1.583-1.18,5.5-3.654,11-3.654c3.569,0,10.975,2.127,10.975,15.006V71.569z"/>
</g>
</svg>
