<?xml version="1.0" encoding="utf-8"?>
<!-- Generator: Adobe Illustrator 16.0.0, SVG Export Plug-In . SVG Version: 6.00 Build 0)  -->
<!DOCTYPE svg PUBLIC "-//W3C//DTD SVG 1.1//EN" "http://www.w3.org/Graphics/SVG/1.1/DTD/svg11.dtd">
<svg version="1.1" id="Layer_1" xmlns="http://www.w3.org/2000/svg" xmlns:xlink="http://www.w3.org/1999/xlink" x="0px" y="0px"
	 width="102px" height="102px" viewBox="0 0 102 102" enable-background="new 0 0 102 102" xml:space="preserve">
<g>
	<path fill="#BCBEC0" d="M87.167,14.938c-19.777-19.917-51.842-19.917-71.619,0c-19.777,19.917-19.777,52.208,0,72.124
		c19.777,19.917,51.841,19.917,71.619,0C106.945,67.146,106.945,34.854,87.167,14.938"/>
	<g>
		<defs>
			<path id="SVGID_1_" d="M69.163,50.859c-1.437,4.989-6.71,8.207-9.426,14.322c-1.941,4.368-0.32,7.241-1.759,7.886
				c-1.438,0.644-1.281,1.292-1.281,1.292s-1.74,0.513-3.488,0.317c-4.456-0.506-8.616-1.729-10.133-1.045
				c0.835,1.367-14.104,3.857-13.556,4.508c0.655,0.779-8.239,5.141-7.869,5.628c0.644,0.85,4.134,5.359,10.711,14.523
				c43.133,14.014,65.869-19.212,69.106-39.91c-2.395-3.793-21.036-26.296-27.81-36.514l-1.843-1.796
				C72.483,36.587,70.602,45.871,69.163,50.859"/>
		</defs>
		<clipPath id="SVGID_2_">
			<use xlink:href="#SVGID_1_"  overflow="visible"/>
		</clipPath>
		
			<linearGradient id="SVGID_3_" gradientUnits="userSpaceOnUse" x1="-283.8838" y1="507.3945" x2="-282.9202" y2="507.3945" gradientTransform="matrix(-53.9181 -31.1296 -31.1296 53.9181 579.5039 -36111.7109)">
			<stop  offset="0" style="stop-color:#BCBEC0"/>
			<stop  offset="0.2134" style="stop-color:#B9BBBD"/>
			<stop  offset="0.4147" style="stop-color:#AFB1B4"/>
			<stop  offset="0.6107" style="stop-color:#A0A2A5"/>
			<stop  offset="0.7395" style="stop-color:#939598"/>
			<stop  offset="1" style="stop-color:#939598"/>
		</linearGradient>
		<polygon clip-path="url(#SVGID_2_)" fill="url(#SVGID_3_)" points="81.423,147.271 -18.376,89.247 41.329,-14.896 141.128,43.129 
					"/>
	</g>
	<g>
		<path fill="#F1F2F2" d="M89.764,17.754C80.924,7.004,66.9,0.21,51.941,0.032C22.338-0.323-0.377,22.601,0.005,52.853
			c0.159,12.518,6.68,24.561,14.452,33.073C7.411,77.164,2.306,66.004,2.334,53.852c0.063-28.178,23.091-51.124,50.642-51
			C67.5,2.917,80.616,7.988,89.764,17.754"/>
		<g opacity="0.6">
			<g>
				<defs>
					<rect id="SVGID_4_" x="28.764" y="19.386" width="43.076" height="56.429"/>
				</defs>
				<clipPath id="SVGID_5_">
					<use xlink:href="#SVGID_4_"  overflow="visible"/>
				</clipPath>
				<path clip-path="url(#SVGID_5_)" fill="#A7A9AC" d="M70.536,19.388c1.244,0.002,1.303,0.057,1.303,1.33
					c0.002,17.905,0.002,35.812,0,53.719c0,1.331-0.05,1.377-1.362,1.378c-13.437,0-26.874,0-40.31,0c-1.36,0-1.4-0.038-1.4-1.442
					c-0.001-17.839-0.001-35.678,0-53.516c0-1.457,0.013-1.467,1.469-1.468C32.591,19.386,68.116,19.384,70.536,19.388"/>
			</g>
		</g>
		<path fill="#E6E7E8" d="M72.596,21.713c1.243,0.002,1.303,0.057,1.303,1.329c0.002,17.906,0.002,35.812,0,53.72
			c0,1.33-0.051,1.375-1.362,1.375c-13.437,0.001-26.875,0.001-40.31,0.001c-1.361,0-1.402-0.038-1.402-1.441
			c-0.001-17.839-0.001-35.678,0-53.517c0-1.457,0.014-1.466,1.471-1.467C34.65,21.712,70.175,21.709,72.596,21.713"/>
		<path fill="#E6E7E8" d="M59.049,52.283c0-1.38,0.263-2.674,0.789-3.884c0.524-1.21,1.237-2.268,2.136-3.172
			c0.898-0.906,1.948-1.622,3.149-2.15s2.487-0.794,3.857-0.794c1.371,0,2.656,0.265,3.858,0.794c1.201,0.529,2.25,1.245,3.15,2.15
			c0.898,0.905,1.611,1.962,2.136,3.172c0.524,1.209,0.695,2.508,0.787,3.884c0.239,3.578-2.837,8.114-6.073,9.209
			c-1.243,0.42-2.487,0.792-3.858,0.792c-1.37,0-2.656-0.264-3.857-0.792c-1.201-0.529-2.251-1.247-3.149-2.152
			c-0.899-0.903-1.612-1.962-2.136-3.172C59.312,54.958,59.049,53.664,59.049,52.283"/>
		<path fill="#939598" d="M75.497,44.815c-2.018-1.81-5.8-3.497-8.688-3.088c-5.715,0.811-9.422,5.902-8.463,11.72
			c0.396,2.407,2.695,5.179,4.441,6.589c-1.614-1.48-2.758-3.505-3.109-5.847c-0.812-5.432,2.955-10.537,8.268-11.331
			C70.746,42.441,73.448,43.205,75.497,44.815"/>
		<path fill="#939598" d="M70.165,46.909c2.2,0,3.495,0.654,3.495,1.414c0,0.379-0.366,0.78-0.879,0.78
			c-0.831,0-1.149-0.591-2.616-0.591c-2.664,0-3.999,2.235-3.999,4.133s1.335,4.134,3.999,4.134c1.516,0,1.907-0.633,2.592-0.633
			c0.488,0,0.83,0.274,0.83,0.78c0,0.696-1.197,1.454-3.421,1.454c-3.958,0-5.866-2.761-5.866-5.735
			C64.299,49.673,66.207,46.909,70.165,46.909"/>
	</g>
	<g>
		<defs>
			<path id="SVGID_6_" d="M27.105,75.979c0.602,1.036,3.66,6.246,4.235,7.234c9.148-5.397,18.217-10.747,27.194-16.043
				c-0.632-1.001-3.89-5.983-4.513-6.97C45.069,65.479,36.203,70.612,27.105,75.979"/>
		</defs>
		<clipPath id="SVGID_7_">
			<use xlink:href="#SVGID_6_"  overflow="visible"/>
		</clipPath>
		
			<linearGradient id="SVGID_8_" gradientUnits="userSpaceOnUse" x1="-280.6826" y1="505.4395" x2="-279.7236" y2="505.4395" gradientTransform="matrix(32.7805 0 0 -32.7805 9228.0068 16640.3145)">
			<stop  offset="0" style="stop-color:#A7A9AC"/>
			<stop  offset="0.0335" style="stop-color:#A7A9AC"/>
			<stop  offset="0.1671" style="stop-color:#9DA0A2"/>
			<stop  offset="0.722" style="stop-color:#7B7C7F"/>
			<stop  offset="1" style="stop-color:#6D6E71"/>
		</linearGradient>
		<rect x="27.105" y="60.199" clip-path="url(#SVGID_7_)" fill="url(#SVGID_8_)" width="31.429" height="23.013"/>
	</g>
	<g>
		<defs>
			<path id="SVGID_9_" d="M22.908,78.486c-1.579,1.092-2.133,3.626-1.256,5.281c0.995,1.882,3.208,2.824,5.129,1.997
				c1.391-0.597,2.671-1.451,4.041-2.212c-1.448-2.486-2.822-4.848-4.233-7.271C25.32,77.032,24.064,77.687,22.908,78.486"/>
		</defs>
		<clipPath id="SVGID_10_">
			<use xlink:href="#SVGID_9_"  overflow="visible"/>
		</clipPath>
		
			<linearGradient id="SVGID_11_" gradientUnits="userSpaceOnUse" x1="-276.2686" y1="501.6553" x2="-275.31" y2="501.6553" gradientTransform="matrix(9.9974 0 0 -9.9974 2783.2131 5096.6914)">
			<stop  offset="0" style="stop-color:#939598"/>
			<stop  offset="0.2629" style="stop-color:#8D9092"/>
			<stop  offset="1" style="stop-color:#808285"/>
		</linearGradient>
		<rect x="20.775" y="76.281" clip-path="url(#SVGID_10_)" fill="url(#SVGID_11_)" width="10.046" height="10.31"/>
	</g>
	<path fill="#939598" d="M66.468,56.933c-2.648,3.222-5.041,6.903-7.48,9.869c-1.091-1.544-3.991-6.183-4.538-6.952
		C58.171,59.138,62.314,57.878,66.468,56.933"/>
	<path fill="#D1D3D4" d="M28.371,76.536l25.61-15.291l0.683,1.038c0,0-24.655,13.915-24.835,13.997
		C29.283,76.524,28.371,76.536,28.371,76.536"/>
	<path fill="#D1D3D4" d="M22.666,79.855c1.163-1.011,1.877-1.006,0.999-0.161c-1.752,1.684,1.079,3.943-0.719,4.465
		C21.984,84.439,21.276,81.062,22.666,79.855"/>
	<polygon fill="#D1D3D4" points="55.583,60.585 56.079,61.428 62.563,58.38 	"/>
</g>
</svg>
