<?xml version="1.0" encoding="utf-8"?>
<!-- Generator: Adobe Illustrator 16.0.0, SVG Export Plug-In . SVG Version: 6.00 Build 0)  -->
<!DOCTYPE svg PUBLIC "-//W3C//DTD SVG 1.1//EN" "http://www.w3.org/Graphics/SVG/1.1/DTD/svg11.dtd">
<svg version="1.1" id="Layer_1" xmlns="http://www.w3.org/2000/svg" xmlns:xlink="http://www.w3.org/1999/xlink" x="0px" y="0px"
	 width="102px" height="102px" viewBox="0 0 102 102" enable-background="new 0 0 102 102" xml:space="preserve">
<g>
	<g>
		<path fill="#4BBA77" d="M87.167,15.292c-19.777-19.836-51.842-19.836-71.619,0c-19.777,19.836-19.777,51.996,0,71.831
			c19.776,19.836,51.841,19.836,71.619,0C106.944,67.288,106.944,35.128,87.167,15.292"/>
	</g>
	<g>
		<defs>
			<path id="SVGID_1_" d="M0.005,52.611C0.163,65.078,6.137,76.924,13.908,85.4C6.863,76.675,2.306,65.709,2.333,53.606
				C2.396,25.542,25.424,2.689,52.976,2.813c14.523,0.065,27.641,6.021,36.788,15.747C80.923,7.854,66.899,0.184,51.941,0.005
				C51.714,0.003,51.488,0,51.264,0C21.992,0-0.375,22.712,0.005,52.611"/>
		</defs>
		<clipPath id="SVGID_2_">
			<use xlink:href="#SVGID_1_"  overflow="visible"/>
		</clipPath>
		
			<linearGradient id="SVGID_3_" gradientUnits="userSpaceOnUse" x1="-354.251" y1="135.0322" x2="-353.2896" y2="135.0322" gradientTransform="matrix(-41.0467 -41.0467 -41.0467 41.0467 -8942.9775 -20030.2109)">
			<stop  offset="0" style="stop-color:#DCDDDE"/>
			<stop  offset="0.3204" style="stop-color:#A4BEA4"/>
			<stop  offset="0.9918" style="stop-color:#009444"/>
			<stop  offset="1" style="stop-color:#009444"/>
		</linearGradient>
		<polygon clip-path="url(#SVGID_2_)" fill="url(#SVGID_3_)" points="44.694,130.604 -42.949,42.7 44.694,-45.202 132.337,42.7 		
			"/>
	</g>
	<g>
		<g opacity="0.5">
			<g>
				<defs>
					<rect id="SVGID_4_" x="28.368" y="11.532" width="65.872" height="90.417"/>
				</defs>
				<clipPath id="SVGID_5_">
					<use xlink:href="#SVGID_4_"  overflow="visible"/>
				</clipPath>
				<g clip-path="url(#SVGID_5_)">
					<defs>
						<path id="SVGID_6_" d="M94.24,77.566c0,0-8.704,22.449-45.11,24.383c-3.534-7.696-8.661-18.762-13.884-27.759
							c-0.997-6.134-1.939-5.821,1.369-8.828c-3.882-7.171-8.247-16.588-8.247-16.588s9.061-10.598,10.613-11.289
							c1.552-0.691,4.429-12.555,9.802-11.849c-0.85-14.104,7.339-12.593,7.902-14.104C73.953,41.117,94.24,77.566,94.24,77.566"/>
					</defs>
					<clipPath id="SVGID_7_">
						<use xlink:href="#SVGID_6_"  overflow="visible"/>
					</clipPath>
					
						<linearGradient id="SVGID_8_" gradientUnits="userSpaceOnUse" x1="-354.2241" y1="135.0068" x2="-353.2638" y2="135.0068" gradientTransform="matrix(-70.2917 -25.5841 -25.5841 70.2917 -21347.8945 -18482.6523)">
						<stop  offset="0" style="stop-color:#FFFFFF"/>
						<stop  offset="0.1112" style="stop-color:#F9FAFA"/>
						<stop  offset="0.2172" style="stop-color:#EFEFF0"/>
						<stop  offset="0.3212" style="stop-color:#DFE0E1"/>
						<stop  offset="0.4239" style="stop-color:#C8CACC"/>
						<stop  offset="0.5257" style="stop-color:#ACAEB0"/>
						<stop  offset="0.6268" style="stop-color:#8A8C8F"/>
						<stop  offset="0.7257" style="stop-color:#656668"/>
						<stop  offset="0.7395" style="stop-color:#5F6062"/>
						<stop  offset="1" style="stop-color:#5F6062"/>
					</linearGradient>
					<polygon clip-path="url(#SVGID_7_)" fill="url(#SVGID_8_)" points="86.534,123.183 -0.605,91.372 36.073,-9.701 
						123.214,22.108 					"/>
				</g>
			</g>
		</g>
		<path fill="#FFFFFF" d="M56.838,55.999c0.163-0.186,0.315-0.337,0.445-0.508c2.184-2.866,4.376-5.729,6.538-8.613
			c0.467-0.623,0.874-1.307,1.212-2.01c2.147-4.45,0.605-10.185-3.441-12.893c-4.45-2.977-10.296-2.397-13.583,1.546
			c-2.602,3.124-4.978,6.438-7.45,9.67c-0.056,0.072-0.069,0.178-0.104,0.273C45.911,47.639,51.354,51.803,56.838,55.999
			 M55.944,57.254c-2.223-1.699-4.35-3.328-6.528-4.993c-0.441,0.579-0.847,1.127-1.268,1.662c-0.483,0.615-1.114,0.996-1.902,0.894
			c-0.476-0.061-0.7,0.13-0.954,0.468c-1.634,2.172-3.285,4.332-4.931,6.495c-0.144,0.19-0.288,0.38-0.437,0.576
			c0.2,0.153,0.323,0.277,0.471,0.354c3.788,2.009,7.495,1.895,11.096-0.466C53.401,60.991,54.527,59.033,55.944,57.254
			 M38.762,61.473c1.884-2.479,3.74-4.912,5.58-7.357c0.093-0.123,0.119-0.377,0.061-0.523c-0.387-0.956-0.134-1.771,0.472-2.535
			c0.374-0.472,0.729-0.956,1.123-1.473c-1.159-0.887-2.226-1.704-3.294-2.521c-1.061-0.811-2.12-1.623-3.228-2.47
			c-1.367,1.896-2.925,3.514-3.675,5.682C34.431,54.232,35.667,59.062,38.762,61.473"/>
		<path fill="#E6E7E8" d="M56.838,55.999c-5.484-4.196-10.926-8.359-16.384-12.534c0.036-0.097,0.05-0.2,0.105-0.273
			c2.473-3.232,4.848-6.546,7.451-9.669c3.286-3.945,9.132-4.523,13.582-1.546c4.046,2.708,5.588,8.441,3.442,12.893
			c-0.339,0.701-0.747,1.385-1.214,2.01c-2.161,2.885-4.354,5.745-6.538,8.612C57.153,55.661,57,55.813,56.838,55.999"/>
		<path fill="#E6E7E8" d="M55.944,57.254c-1.417,1.779-2.542,3.737-4.454,4.99c-3.601,2.359-7.308,2.474-11.096,0.466
			c-0.146-0.078-0.269-0.201-0.47-0.354c0.149-0.196,0.293-0.386,0.438-0.576c1.645-2.163,3.296-4.323,4.93-6.495
			c0.254-0.339,0.479-0.528,0.954-0.467c0.788,0.102,1.42-0.28,1.902-0.895c0.421-0.535,0.827-1.082,1.268-1.662
			C51.594,53.927,53.723,55.556,55.944,57.254"/>
		<path fill="#E6E7E8" d="M38.762,61.473c-3.095-2.41-4.332-7.24-2.962-11.197c0.75-2.168,2.308-3.785,3.675-5.682
			c1.108,0.847,2.167,1.659,3.228,2.47c1.068,0.816,2.135,1.634,3.294,2.521c-0.393,0.517-0.749,1.001-1.123,1.473
			c-0.606,0.764-0.858,1.579-0.472,2.535c0.058,0.146,0.032,0.4-0.061,0.523C42.502,56.561,40.646,58.994,38.762,61.473"/>
		<path fill="#E6E7E8" d="M39.945,62.62c-0.105-0.062-0.221-0.106-0.295-0.141c-1.236,1.623-2.623,3.067-3.561,4.763
			c-1.85,3.342-0.669,7.527,2.449,9.526c3.252,2.087,7.496,1.374,9.865-1.718c4.325-5.646,8.61-11.319,12.923-16.973
			c1.594-2.09,4.176-2.909,6.609-2.142c4.021,1.271,5.495,6.066,2.893,9.524c-3.393,4.505-6.823,8.981-10.236,13.472
			c-0.176,0.231-0.353,0.464-0.593,0.78c0.459,0.352,0.883,0.669,1.299,0.994c0.648,0.511,0.687,0.797,0.181,1.468
			c-0.842,1.117-1.691,2.227-2.537,3.339c-0.807,1.06-0.807,1.06-2.004,0.43c-0.331,0.436-0.673,0.879-1.007,1.327
			c-0.357,0.479-0.765,0.577-1.255,0.199c-0.602-0.463-1.203-0.928-1.811-1.384c-0.498-0.374-0.512-0.791-0.148-1.264
			c0.34-0.443,0.677-0.89,1.004-1.319c-0.905-1.028-0.905-1.028-0.068-2.129c0.832-1.093,1.658-2.189,2.496-3.277
			c0.515-0.67,0.798-0.705,1.461-0.211c0.411,0.306,0.814,0.62,1.269,0.969c0.17-0.19,0.324-0.339,0.451-0.508
			c3.446-4.526,6.899-9.047,10.329-13.587c1.809-2.392,1.417-5.281-0.894-6.918c-2.02-1.431-4.799-1.002-6.35,1.024
			c-3.383,4.423-6.736,8.866-10.117,13.286c-1.221,1.595-2.368,3.271-3.762,4.701c-3.125,3.208-8.288,3.268-11.728,0.283
			c-3.303-2.864-3.907-7.976-1.335-11.541c0.959-1.33,1.98-2.616,3.004-3.963 M40.691,60.935c-0.086,0.113-0.149,0.245-0.222,0.367"
			/>
		<path fill="#FFFFFF" d="M40.469,61.302c0.072-0.122,0.135-0.254,0.222-0.367"/>
		<path fill="#E6E7E8" d="M59.504,17.605c-1.798,0.753-3.415,1.431-5.036,2.104c-1.388,0.579-2.418,0.283-3.34-0.948
			c-1.221-1.632-0.635-3.896,1.214-4.686c0.723-0.31,1.448-0.613,2.169-0.924c0.854-0.37,1.703-0.744,2.628-1.148
			c-0.206-0.214-0.319-0.354-0.454-0.472c-2.063-1.811-6.327-2.383-8.79-1.183c-2.751,1.34-4.208,4.091-3.714,7.331
			c0.194,1.268-0.135,2.22-0.882,3.196c-5.637,7.367-11.243,14.759-16.856,22.144c-0.222,0.292-0.453,0.586-0.625,0.908
			c-1.106,2.078,0.213,4.576,2.549,4.846c1.401,0.161,2.402-0.482,3.222-1.562c5.099-6.721,10.214-13.428,15.311-20.15
			c0.986-1.303,2.204-1.818,3.838-1.518c2.094,0.383,4.098,0.082,5.777-1.333c1.537-1.295,2.467-2.984,2.839-4.965
			C59.445,18.767,59.446,18.269,59.504,17.605"/>
	</g>
</g>
</svg>
