<?xml version="1.0" encoding="utf-8"?>
<!-- Generator: Adobe Illustrator 16.0.0, SVG Export Plug-In . SVG Version: 6.00 Build 0)  -->
<!DOCTYPE svg PUBLIC "-//W3C//DTD SVG 1.1//EN" "http://www.w3.org/Graphics/SVG/1.1/DTD/svg11.dtd">
<svg version="1.1" id="Layer_1" xmlns="http://www.w3.org/2000/svg" xmlns:xlink="http://www.w3.org/1999/xlink" x="0px" y="0px"
	 width="102px" height="102px" viewBox="0 0 102 102" enable-background="new 0 0 102 102" xml:space="preserve">
<g>
	<path fill="#BCBEC0" d="M87.167,15.292c-19.777-19.836-51.842-19.836-71.619,0c-19.777,19.836-19.777,51.996,0,71.831
		c19.776,19.836,51.841,19.836,71.619,0C106.944,67.287,106.944,35.127,87.167,15.292"/>
	<g>
		<defs>
			<path id="SVGID_1_" d="M71.022,59.103c-0.535,1.442-4.571,1.841-15.316,3.311c-5.121-0.674-1.527,3.503-3.005,4.163
				c-1.479,0.659-6.156,0.157-6.156,0.157s-22.306,6.207-24.104,6.005c5.089,5.197,12.522,16.332,21.39,28.3
				c49.138,2.55,56.442-38.625,56.442-38.625l-13.628-13.53C79.544,51.31,72.876,54.117,71.022,59.103"/>
		</defs>
		<clipPath id="SVGID_2_">
			<use xlink:href="#SVGID_1_"  overflow="visible"/>
		</clipPath>
		
			<linearGradient id="SVGID_3_" gradientUnits="userSpaceOnUse" x1="-349.1997" y1="452.6904" x2="-348.2399" y2="452.6904" gradientTransform="matrix(-68.6178 -24.9748 -24.9748 68.6178 -12563.7461 -39696.6562)">
			<stop  offset="0" style="stop-color:#BCBEC0"/>
			<stop  offset="0.2134" style="stop-color:#B9BBBD"/>
			<stop  offset="0.4147" style="stop-color:#AFB1B4"/>
			<stop  offset="0.6107" style="stop-color:#A0A2A5"/>
			<stop  offset="0.7395" style="stop-color:#939598"/>
			<stop  offset="1" style="stop-color:#939598"/>
		</linearGradient>
		<polygon clip-path="url(#SVGID_2_)" fill="url(#SVGID_3_)" points="91.168,128.678 4.911,97.189 31.545,23.794 117.803,55.283 		
			"/>
	</g>
	<path fill="#F1F2F2" d="M89.763,18.56C80.922,7.854,66.899,0.183,51.94,0.004C22.337-0.35-0.378,22.481,0.004,52.61
		C0.164,65.078,6.136,76.923,13.908,85.4C6.863,76.675,2.305,65.708,2.333,53.604C2.396,25.541,25.424,2.688,52.975,2.812
		C67.499,2.878,80.616,8.833,89.763,18.56"/>
	<g opacity="0.1">
		<g>
			<defs>
				<rect id="SVGID_4_" x="75.208" y="47.824" width="25.066" height="38.266"/>
			</defs>
			<clipPath id="SVGID_5_">
				<use xlink:href="#SVGID_4_"  overflow="visible"/>
			</clipPath>
			<g clip-path="url(#SVGID_5_)">
				<defs>
					<path id="SVGID_6_" d="M100.274,63.375c-2.604-2.128-8.134-8.565-16.733-15.551c0.537,4.167-9.152,13.231-8.277,21.53
						c0.047,0.443,1.117,1.262,1.379,1.609C80.984,76.73,88.383,86.09,88.383,86.09"/>
				</defs>
				<clipPath id="SVGID_7_">
					<use xlink:href="#SVGID_6_"  overflow="visible"/>
				</clipPath>
				
					<linearGradient id="SVGID_8_" gradientUnits="userSpaceOnUse" x1="-345.2437" y1="453.2725" x2="-344.2833" y2="453.2725" gradientTransform="matrix(-22.2155 -8.0858 -8.0858 22.2155 -3907.0679 -12790.5488)">
					<stop  offset="0" style="stop-color:#FFFFFF"/>
					<stop  offset="0.1112" style="stop-color:#F9FAFA"/>
					<stop  offset="0.2172" style="stop-color:#EFEFF0"/>
					<stop  offset="0.3212" style="stop-color:#DFE0E1"/>
					<stop  offset="0.4239" style="stop-color:#C8CACC"/>
					<stop  offset="0.5257" style="stop-color:#ACAEB0"/>
					<stop  offset="0.6268" style="stop-color:#8A8C8F"/>
					<stop  offset="0.7257" style="stop-color:#656668"/>
					<stop  offset="0.7395" style="stop-color:#5F6062"/>
					<stop  offset="1" style="stop-color:#5F6062"/>
				</linearGradient>
				<polygon clip-path="url(#SVGID_7_)" fill="url(#SVGID_8_)" points="97.246,94.435 62.126,81.614 77.416,39.48 112.537,52.301 
									"/>
			</g>
		</g>
	</g>
	<path fill="#FFFFFF" d="M43.748,52.78H21.087c-0.03,0.197-0.065,0.322-0.065,0.448c-0.003,5.963-0.019,11.926,0.006,17.889
		c0.007,1.744,0.966,2.579,2.83,2.58c16.179,0.003,32.358,0.004,48.537-0.001c2.079-0.001,2.98-0.899,2.985-2.965
		c0.011-5.703,0.009-11.405,0.008-17.107c0-0.28-0.043-0.559-0.073-0.919h-7.756c-5.035,0-10.071,0.008-15.107-0.009
		c-0.639-0.002-1.067,0.044-1.001,0.868c0.066,0.81,0.032,1.629,0.009,2.443c-0.038,1.303-0.758,2.056-2.065,2.103
		c-1.168,0.041-2.34,0.044-3.508-0.002c-1.373-0.054-2.11-0.861-2.133-2.262C43.736,54.845,43.748,53.843,43.748,52.78
		 M56.875,35.449H38.346c0,1.12,0.019,2.159-0.006,3.197c-0.027,1.175-0.756,2.021-1.917,2.056c-2.013,0.061-4.03,0.07-6.043-0.003
		c-1.374-0.05-2.174-0.996-2.162-2.377c0.01-0.957,0.079-1.913,0.121-2.877c-1.974-0.266-1.97-0.262-3.288,1.19
		c-1.948,2.145-3.903,4.281-5.847,6.428c-0.213,0.235-0.519,0.519-0.523,0.785c-0.042,2.334-0.024,4.668-0.024,7.005h25.092
		c0-0.392-0.003-0.712,0-1.032c0.016-1.809,0.659-2.447,2.487-2.459c1.072-0.007,2.145-0.019,3.217,0.006
		c1.255,0.029,1.964,0.757,2.008,2.024c0.017,0.479,0.002,0.958,0.002,1.479h25.706c0-2.163,0.034-4.273-0.027-6.381
		c-0.014-0.493-0.248-1.075-0.572-1.447c-1.881-2.159-3.941-4.172-5.699-6.425c-1.21-1.55-2.617-1.274-4.014-1.192
		c0.056,0.987,0.138,1.887,0.148,2.788c0.019,1.534-0.83,2.464-2.354,2.503c-1.883,0.049-3.769,0.04-5.652,0.003
		c-1.341-0.025-2.097-0.828-2.117-2.161C56.862,37.553,56.875,36.547,56.875,35.449 M58.638,38.966c1.677,0,3.169,0.018,4.662-0.004
		c2.153-0.032,1.942,0.453,1.941-2.093c-0.001-0.608-0.317-0.893-0.91-0.894c-0.65-0.003-1.301,0.021-1.949-0.015
		c-1.145-0.063-1.346-0.288-1.347-1.427c-0.004-2.575,0.005-5.15-0.004-7.725c-0.004-1.577-0.593-2.22-2.168-2.224
		c-7.506-0.019-15.015-0.019-22.522,0c-1.567,0.004-2.151,0.647-2.159,2.233c-0.011,2.315-0.004,4.629-0.004,6.944
		c0,2.208,0,2.208-2.19,2.209c-2.05,0.001-2.021,0.001-2.026,2.039c-0.002,0.718,0.215,0.987,0.945,0.968
		c1.56-0.039,3.123-0.059,4.68,0.007c0.846,0.036,1.024-0.282,1.013-1.064c-0.042-2.867-0.018-5.737-0.015-8.605
		c0.001-1.346,0.362-1.705,1.743-1.713c1.431-0.007,2.86-0.002,4.291-0.002c4.777,0,9.555-0.004,14.332,0.004
		c1.312,0.002,1.685,0.388,1.687,1.677c0.004,1.988,0.001,3.978,0.001,5.966V38.966z M45.534,49.156c0,2.293-0.011,4.498,0.02,6.701
		c0.003,0.163,0.294,0.455,0.458,0.46c1.189,0.04,2.382,0.021,3.592,0.021v-7.183H45.534z"/>
	<path fill="#E6E7E8" d="M43.749,52.779c0,1.064-0.014,2.066,0.002,3.067c0.022,1.401,0.761,2.207,2.134,2.261
		c1.168,0.046,2.34,0.043,3.508,0.002c1.308-0.046,2.028-0.8,2.066-2.102c0.022-0.814,0.056-1.634-0.01-2.443
		c-0.066-0.824,0.362-0.871,1.001-0.869c5.037,0.018,10.072,0.01,15.107,0.01h7.757c0.029,0.359,0.073,0.639,0.073,0.918
		c0.001,5.702,0.003,11.405-0.01,17.107c-0.004,2.066-0.905,2.965-2.982,2.965c-16.18,0.006-32.358,0.005-48.538,0.001
		c-1.864,0-2.823-0.836-2.831-2.579c-0.025-5.963-0.009-11.926-0.005-17.889c0-0.126,0.035-0.252,0.063-0.45H43.749z"/>
	<path fill="#E6E7E8" d="M56.875,35.448c0,1.099-0.012,2.105,0.003,3.111c0.021,1.333,0.777,2.136,2.117,2.162
		c1.884,0.036,3.771,0.044,5.654-0.004c1.524-0.04,2.373-0.97,2.354-2.503c-0.011-0.901-0.093-1.801-0.148-2.787
		c1.396-0.083,2.802-0.357,4.012,1.192c1.759,2.252,3.818,4.266,5.7,6.425c0.324,0.372,0.557,0.954,0.571,1.446
		c0.062,2.108,0.026,4.22,0.026,6.382H51.463c0-0.522,0.013-1.002-0.003-1.48c-0.044-1.267-0.753-1.996-2.009-2.025
		c-1.07-0.025-2.143-0.013-3.216-0.005c-1.828,0.011-2.47,0.651-2.486,2.459c-0.003,0.319-0.001,0.64-0.001,1.031H18.657
		c0-2.336-0.019-4.67,0.023-7.005c0.003-0.265,0.312-0.549,0.523-0.784c1.944-2.148,3.9-4.284,5.847-6.429
		c1.319-1.453,1.313-1.457,3.289-1.191c-0.043,0.964-0.112,1.921-0.121,2.878c-0.014,1.38,0.787,2.327,2.162,2.377
		c2.011,0.073,4.03,0.062,6.042,0.003c1.16-0.036,1.889-0.881,1.917-2.056c0.024-1.038,0.005-2.078,0.005-3.197H56.875z"/>
	<path fill="#E6E7E8" d="M58.638,38.966v-3.719c0-1.988,0.003-3.977-0.001-5.965c-0.002-1.29-0.375-1.675-1.686-1.677
		c-4.778-0.008-9.555-0.004-14.333-0.004c-1.431,0-2.86-0.006-4.29,0.002c-1.382,0.007-1.744,0.366-1.745,1.712
		c-0.002,2.869-0.025,5.738,0.016,8.605c0.011,0.783-0.167,1.1-1.014,1.063c-1.557-0.065-3.12-0.046-4.679-0.006
		c-0.729,0.018-0.948-0.251-0.946-0.969c0.006-2.037-0.021-2.037,2.027-2.038c2.191-0.002,2.191-0.002,2.191-2.211
		c0-2.313-0.007-4.628,0.003-6.943c0.006-1.588,0.591-2.231,2.159-2.235c7.507-0.018,15.016-0.018,22.523,0
		c1.574,0.004,2.162,0.648,2.167,2.225c0.008,2.575,0,5.15,0.003,7.726c0.002,1.139,0.203,1.364,1.347,1.427
		c0.648,0.036,1.3,0.011,1.951,0.014c0.592,0.002,0.908,0.287,0.908,0.894c0.002,2.546,0.214,2.062-1.939,2.095
		C61.808,38.984,60.314,38.966,58.638,38.966"/>
	<path fill="#E6E7E8" d="M45.534,49.156h4.069v7.183c-1.209,0-2.402,0.018-3.592-0.021c-0.164-0.006-0.455-0.298-0.458-0.46
		C45.523,53.653,45.534,51.449,45.534,49.156"/>
	<g opacity="0.18">
		<g>
			<defs>
				<rect id="SVGID_9_" x="22.555" y="55.308" width="50.442" height="16.136"/>
			</defs>
			<clipPath id="SVGID_10_">
				<use xlink:href="#SVGID_9_"  overflow="visible"/>
			</clipPath>
			<path clip-path="url(#SVGID_10_)" fill="#58595B" d="M24.113,71.416c1.69,0.062,48.886,0,48.886,0s-35.771-0.503-47.326-2.155
				c-2.543-0.363-2.299-13.823-2.871-13.953C22.326,55.199,22.423,71.354,24.113,71.416"/>
		</g>
	</g>
	<g opacity="0.18">
		<g>
			<defs>
				<rect id="SVGID_11_" x="55.707" y="42.397" width="17.291" height="1.435"/>
			</defs>
			<clipPath id="SVGID_12_">
				<use xlink:href="#SVGID_11_"  overflow="visible"/>
			</clipPath>
			<polygon clip-path="url(#SVGID_12_)" fill="#58595B" points="72.999,43.833 55.706,43.833 72.348,42.397 			"/>
		</g>
	</g>
	<path fill="#E6E7E8" d="M67.449,58.526c0-1.603,0.306-3.109,0.919-4.515c0.611-1.406,1.443-2.636,2.492-3.687
		c1.049-1.053,2.274-1.885,3.676-2.5c1.402-0.614,2.902-0.922,4.502-0.922s3.101,0.308,4.502,0.922
		c1.401,0.615,2.627,1.447,3.677,2.5c1.049,1.051,1.879,2.281,2.493,3.687c0.611,1.406,0.811,2.915,0.919,4.515
		c0.277,4.158-3.312,9.432-7.089,10.703c-1.45,0.488-2.902,0.921-4.502,0.921s-3.1-0.306-4.502-0.921
		c-1.401-0.615-2.627-1.448-3.676-2.5c-1.049-1.052-1.881-2.281-2.492-3.687C67.755,61.636,67.449,60.131,67.449,58.526"/>
	<path fill="#BCBEC0" d="M86.645,49.846c-2.355-2.103-6.77-4.064-10.14-3.588c-6.67,0.94-10.997,6.859-9.878,13.622
		c0.463,2.798,3.145,6.02,5.183,7.658c-1.883-1.72-3.219-4.072-3.628-6.796c-0.947-6.314,3.448-12.247,9.648-13.169
		C81.1,47.086,84.253,47.973,86.645,49.846"/>
	<path fill="#BCBEC0" d="M80.421,52.28c2.568,0,4.079,0.76,4.079,1.644c0,0.44-0.428,0.906-1.025,0.906
		c-0.97,0-1.342-0.687-3.054-0.687c-3.107,0-4.666,2.599-4.666,4.804c0,2.206,1.559,4.804,4.666,4.804
		c1.77,0,2.226-0.734,3.024-0.734c0.57,0,0.97,0.318,0.97,0.906c0,0.809-1.397,1.69-3.994,1.69c-4.619,0-6.846-3.209-6.846-6.666
		C73.576,55.492,75.802,52.28,80.421,52.28"/>
</g>
</svg>
