<?xml version="1.0" encoding="utf-8"?>
<!-- Generator: Adobe Illustrator 16.0.0, SVG Export Plug-In . SVG Version: 6.00 Build 0)  -->
<!DOCTYPE svg PUBLIC "-//W3C//DTD SVG 1.1//EN" "http://www.w3.org/Graphics/SVG/1.1/DTD/svg11.dtd">
<svg version="1.1" id="Layer_1" xmlns="http://www.w3.org/2000/svg" xmlns:xlink="http://www.w3.org/1999/xlink" x="0px" y="0px"
	 width="102px" height="102px" viewBox="0 0 102 102" enable-background="new 0 0 102 102" xml:space="preserve">
<g>
	<path fill="#4BBA77" d="M87.167,15.292c-19.777-19.837-51.842-19.837-71.619,0c-19.777,19.836-19.777,51.995,0,71.83
		c19.776,19.836,51.841,19.836,71.619,0C106.944,67.287,106.944,35.128,87.167,15.292"/>
	<g opacity="0.6">
		<g>
			<defs>
				<rect id="SVGID_1_" x="22.441" y="18.921" width="79.559" height="83.079"/>
			</defs>
			<clipPath id="SVGID_2_">
				<use xlink:href="#SVGID_1_"  overflow="visible"/>
			</clipPath>
			<g clip-path="url(#SVGID_2_)">
				<defs>
					<path id="SVGID_3_" d="M72.653,18.921L102,51.754c0,0-1.656,44.437-46.478,50.246c-11.303-7.973-27.991-17.313-33.081-22.513
						c1.797,0.203,24.104-11.792,24.104-11.792s-8.322-11.955-6.843-12.613c1.479-0.659,4.737-20.548,9.859-19.874
						c9.212,9.369,20.925,26.297,21.46,24.855C72.877,55.079,65.552,21.346,72.653,18.921"/>
				</defs>
				<clipPath id="SVGID_4_">
					<use xlink:href="#SVGID_3_"  overflow="visible"/>
				</clipPath>
				
					<linearGradient id="SVGID_5_" gradientUnits="userSpaceOnUse" x1="-2.7188" y1="130.3008" x2="-1.7587" y2="130.3008" gradientTransform="matrix(-66.1778 -24.0867 -24.0867 66.1778 3055.332 -8615.4824)">
					<stop  offset="0" style="stop-color:#FFFFFF"/>
					<stop  offset="0.1112" style="stop-color:#F9FAFA"/>
					<stop  offset="0.2172" style="stop-color:#EFEFF0"/>
					<stop  offset="0.3212" style="stop-color:#DFE0E1"/>
					<stop  offset="0.4239" style="stop-color:#C8CACC"/>
					<stop  offset="0.5257" style="stop-color:#ACAEB0"/>
					<stop  offset="0.6268" style="stop-color:#8A8C8F"/>
					<stop  offset="0.7257" style="stop-color:#656668"/>
					<stop  offset="0.7395" style="stop-color:#5F6062"/>
					<stop  offset="1" style="stop-color:#5F6062"/>
				</linearGradient>
				<polygon clip-path="url(#SVGID_4_)" fill="url(#SVGID_5_)" points="92.694,127.646 -4.181,92.281 31.749,-6.725 128.622,28.639 
									"/>
			</g>
		</g>
	</g>
	<g>
		<defs>
			<path id="SVGID_6_" d="M0.005,52.61c0.158,12.467,6.132,24.312,13.904,32.791C6.863,76.674,2.306,65.708,2.333,53.604
				C2.396,25.542,25.424,2.688,52.977,2.812C67.5,2.877,80.615,8.834,89.763,18.559C80.923,7.854,66.9,0.183,51.941,0.004
				C51.715,0.001,51.487,0,51.262,0C21.99-0.001-0.374,22.712,0.005,52.61"/>
		</defs>
		<clipPath id="SVGID_7_">
			<use xlink:href="#SVGID_6_"  overflow="visible"/>
		</clipPath>
		
			<linearGradient id="SVGID_8_" gradientUnits="userSpaceOnUse" x1="-3.0464" y1="131.8613" x2="-2.0848" y2="131.8613" gradientTransform="matrix(-41.0467 -41.0467 -41.0467 41.0467 5342.7031 -5484.2949)">
			<stop  offset="0" style="stop-color:#DCDDDE"/>
			<stop  offset="0.3204" style="stop-color:#A4BEA4"/>
			<stop  offset="0.9918" style="stop-color:#009444"/>
			<stop  offset="1" style="stop-color:#009444"/>
		</linearGradient>
		<polygon clip-path="url(#SVGID_7_)" fill="url(#SVGID_8_)" points="44.694,130.604 -42.949,42.7 44.694,-45.203 132.338,42.7 		
			"/>
	</g>
	<g>
		<path fill="#E6E7E8" d="M49.85,75.688c-0.502-4.459-0.987-8.785-1.478-13.11c-0.51-4.49-1.018-8.98-1.547-13.468
			c-0.077-0.645,0.043-1.145,0.485-1.65c0.939-1.079,1.829-2.204,2.69-3.348c0.205-0.271,0.329-0.693,0.308-1.034
			c-0.091-1.484-0.243-2.967-0.386-4.447c-0.109-1.142-0.24-2.279-0.361-3.423h-4.499v3.027H41.5v-3.347h-8.295v3.36h-3.653v-3.012
			h-4.474c-0.284,2.688-0.574,5.317-0.822,7.948c-0.027,0.283,0.125,0.639,0.305,0.875c0.685,0.896,1.36,1.813,2.146,2.619
			c0.959,0.981,1.205,2.004,1.029,3.402c-0.929,7.381-1.727,14.777-2.578,22.169c-0.13,1.138-0.3,2.27-0.459,3.458h-2.258v3.778
			h29.941v-3.799H49.85z"/>
		<path fill="#E6E7E8" d="M49.85,75.688h2.533v3.799H22.441v-3.778H24.7c0.159-1.188,0.329-2.32,0.459-3.458
			c0.851-7.392,1.648-14.788,2.578-22.169c0.176-1.398-0.069-2.421-1.029-3.402c-0.785-0.806-1.46-1.723-2.146-2.619
			c-0.18-0.236-0.332-0.592-0.305-0.875c0.249-2.631,0.539-5.26,0.822-7.948h4.474v3.012h3.653v-3.36H41.5v3.347h3.562v-3.027h4.499
			c0.122,1.144,0.252,2.281,0.361,3.423c0.143,1.48,0.294,2.963,0.386,4.447c0.021,0.341-0.103,0.763-0.308,1.034
			c-0.862,1.144-1.751,2.269-2.69,3.348c-0.442,0.506-0.562,1.006-0.485,1.65c0.529,4.487,1.037,8.978,1.547,13.468
			C48.863,66.903,49.348,71.229,49.85,75.688"/>
		<g opacity="0.6">
			<g>
				<defs>
					<rect id="SVGID_9_" x="25.502" y="48.715" width="18.717" height="26.814"/>
				</defs>
				<clipPath id="SVGID_10_">
					<use xlink:href="#SVGID_9_"  overflow="visible"/>
				</clipPath>
				<path clip-path="url(#SVGID_10_)" fill="#4BBA77" d="M29.276,48.715c0,0,11.853,1.255,14.943,0
					c-4.215,2.151-13.376,2.234-13.376,2.234L26.874,75.53h-1.373L29.276,48.715z"/>
			</g>
		</g>
		<g opacity="0.6">
			<g>
				<defs>
					<rect id="SVGID_11_" x="25.502" y="42.259" width="23.166" height="1.03"/>
				</defs>
				<clipPath id="SVGID_12_">
					<use xlink:href="#SVGID_11_"  overflow="visible"/>
				</clipPath>
				<path clip-path="url(#SVGID_12_)" fill="#4BBA77" d="M48.667,42.259H25.502c0,0,12.934,2.318,22.505,0"/>
			</g>
		</g>
		<path fill="#E6E7E8" d="M62.503,15.667c1.503,0.824,3.007,1.647,4.561,2.5c0.43-0.723,0.875-1.447,1.293-2.186
			c0.254-0.45,0.493-0.566,0.961-0.214c2.69,2.029,5.185,4.256,7.301,6.901c2.405,3.006,3.542,6.49,3.916,10.256
			c0.169,1.698,0.205,3.412,0.258,5.122c0.206,6.751,0.395,13.503,0.593,20.255c0.007,0.229,0.042,0.46,0.073,0.783h3.405v4.168
			H52.329v-4.17h3.402c0.085-1.329,0.173-2.56,0.242-3.791c0.144-2.562,0.246-5.128,0.44-7.687c0.043-0.576,0.28-1.209,0.617-1.681
			c2.452-3.426,4.952-6.818,7.436-10.223c0.189-0.258,0.366-0.525,0.68-0.979c-0.931,0.302-1.667,0.536-2.401,0.78
			c-1.589,0.525-3.171,1.078-4.77,1.569c-0.361,0.112-0.8,0.088-1.178,0.007c-0.6-0.13-1.167-0.421-1.77-0.531
			c-1.385-0.255-2.271-1.022-2.857-2.304c-0.255-0.559-0.215-0.861,0.166-1.3c3.48-4.003,6.931-8.031,10.412-12.033
			c0.408-0.47,0.559-0.868,0.37-1.497c-0.345-1.146-0.573-2.328-0.849-3.495L62.503,15.667z"/>
		<g opacity="0.6">
			<g>
				<defs>
					<rect id="SVGID_13_" x="58.584" y="28.794" width="18.461" height="17.923"/>
				</defs>
				<clipPath id="SVGID_14_">
					<use xlink:href="#SVGID_13_"  overflow="visible"/>
				</clipPath>
				<path clip-path="url(#SVGID_14_)" fill="#4BBA77" d="M67.452,33.93l9.593-5.136c0,0-4.978,4.162-17.692,17.923
					c-0.971,0,0,0-0.769-0.035C61.88,41.764,67.452,33.93,67.452,33.93"/>
			</g>
		</g>
		<g opacity="0.6">
			<g>
				<defs>
					<rect id="SVGID_15_" x="68.436" y="17.281" width="3.255" height="1.593"/>
				</defs>
				<clipPath id="SVGID_16_">
					<use xlink:href="#SVGID_15_"  overflow="visible"/>
				</clipPath>
				<path clip-path="url(#SVGID_16_)" fill="#4BBA77" d="M68.435,18.875l0.782-1.595c0,0,1.237,0.178,2.473,1.595
					C69.865,18.816,68.435,18.875,68.435,18.875"/>
			</g>
		</g>
		<g opacity="0.6">
			<g>
				<defs>
					<rect id="SVGID_17_" x="63.096" y="17.281" width="3.237" height="1.948"/>
				</defs>
				<clipPath id="SVGID_18_">
					<use xlink:href="#SVGID_17_"  overflow="visible"/>
				</clipPath>
				<polygon clip-path="url(#SVGID_18_)" fill="#4BBA77" points="63.802,19.229 63.096,17.28 66.333,18.875 				"/>
			</g>
		</g>
	</g>
</g>
</svg>
