<?xml version="1.0" encoding="utf-8"?>
<!-- Generator: Adobe Illustrator 16.0.0, SVG Export Plug-In . SVG Version: 6.00 Build 0)  -->
<!DOCTYPE svg PUBLIC "-//W3C//DTD SVG 1.1//EN" "http://www.w3.org/Graphics/SVG/1.1/DTD/svg11.dtd">
<svg version="1.1" id="Layer_1" xmlns="http://www.w3.org/2000/svg" xmlns:xlink="http://www.w3.org/1999/xlink" x="0px" y="0px"
	 width="31.799px" height="30.554px" viewBox="0 0 31.799 30.554" enable-background="new 0 0 31.799 30.554" xml:space="preserve">
<g>
	<defs>
		<rect id="SVGID_1_" width="31.799" height="30.554"/>
	</defs>
	<clipPath id="SVGID_2_">
		<use xlink:href="#SVGID_1_"  overflow="visible"/>
	</clipPath>
	<path clip-path="url(#SVGID_2_)" fill="#A0A0A0" d="M25.83,22.675h-3.968v-8.261c0-0.969-0.29-1.649-1.522-1.649
		c-2.06,0-2.457,1.649-2.457,1.649v8.261h-3.966V9.304h3.966v1.279c0.574-0.41,1.99-1.27,3.979-1.27c1.29,0,3.968,0.737,3.968,5.213
		V22.675z M10.063,8.495c-1.029,0-1.863-0.802-1.863-1.8c0-0.988,0.834-1.79,1.863-1.79c1.028,0.009,1.863,0.811,1.863,1.79
		C11.926,7.693,11.091,8.495,10.063,8.495 M11.926,22.675h-3.98V9.304h3.98V22.675z M15.894,0C7.123,0,0,6.843,0,15.271
		c0,8.439,7.122,15.282,15.893,15.282c8.784,0,15.905-6.843,15.905-15.282C31.799,6.833,24.678,0,15.894,0"/>
</g>
</svg>
