<?xml version="1.0" encoding="utf-8"?>
<!-- Generator: Adobe Illustrator 16.0.0, SVG Export Plug-In . SVG Version: 6.00 Build 0)  -->
<!DOCTYPE svg PUBLIC "-//W3C//DTD SVG 1.1//EN" "http://www.w3.org/Graphics/SVG/1.1/DTD/svg11.dtd">
<svg version="1.1" id="Layer_1" xmlns="http://www.w3.org/2000/svg" xmlns:xlink="http://www.w3.org/1999/xlink" x="0px" y="0px"
	 width="76px" height="37.167px" viewBox="0 0 76 37.167" enable-background="new 0 0 76 37.167" xml:space="preserve">
<g>
	<path fill="#00DB6E" d="M55.047,35.391l0.976-3.232c0.059-0.188,0.164-0.329,0.412-0.329c0.281,0,0.481,0.153,0.481,0.435
		c0,0.071-0.023,0.153-0.034,0.188l-1.364,4.361c-0.06,0.164-0.177,0.305-0.423,0.305c-0.235,0-0.377-0.164-0.447-0.353
		l-1.163-3.232l-1.165,3.232c-0.069,0.189-0.211,0.353-0.446,0.353c-0.247,0-0.375-0.141-0.423-0.305l-1.363-4.361
		c-0.012-0.035-0.035-0.118-0.035-0.188c0-0.282,0.199-0.435,0.481-0.435c0.248,0,0.354,0.141,0.411,0.329l0.976,3.232l1.152-3.255
		c0.07-0.188,0.188-0.306,0.412-0.306c0.223,0,0.341,0.118,0.411,0.306L55.047,35.391z"/>
	<path fill="#00DB6E" d="M57.092,34.475c0-1.446,0.929-2.692,2.469-2.692s2.469,1.247,2.469,2.692c0,1.445-0.929,2.691-2.469,2.691
		S57.092,35.92,57.092,34.475 M60.995,34.475c0-0.964-0.493-1.823-1.434-1.823s-1.434,0.858-1.434,1.823
		c0,0.963,0.493,1.822,1.434,1.822C60.701,36.297,60.995,35.438,60.995,34.475"/>
	<path fill="#00DB6E" d="M63.075,31.83c0.295,0,0.518,0.223,0.518,0.518v0.611c0.152-0.705,0.683-1.128,1.316-1.128h0.023
		c0.294,0,0.518,0.165,0.518,0.471c0,0.293-0.224,0.493-0.529,0.493h-0.012c-0.857,0-1.316,0.67-1.316,1.739v2.07
		c0,0.282-0.223,0.517-0.518,0.517c-0.293,0-0.516-0.235-0.516-0.517v-4.255C62.559,32.065,62.782,31.83,63.075,31.83"/>
	<path fill="#00DB6E" d="M69.094,36.908l-1.587-2.315l-0.706,0.658v1.352c0,0.282-0.199,0.517-0.518,0.517
		c-0.306,0-0.517-0.235-0.517-0.517V29.62c0-0.283,0.223-0.517,0.517-0.517c0.306,0,0.518,0.234,0.518,0.517v4.384l2.246-2.034
		c0.117-0.105,0.211-0.141,0.328-0.141c0.294,0,0.481,0.211,0.481,0.471c0,0.14-0.059,0.257-0.199,0.376l-1.457,1.304l1.646,2.351
		c0.07,0.094,0.117,0.188,0.117,0.317c0,0.247-0.176,0.47-0.493,0.47C69.293,37.12,69.188,37.037,69.094,36.908"/>
	<path fill="#00DB6E" d="M70.504,36.543c-0.165-0.129-0.224-0.271-0.224-0.435c0-0.212,0.164-0.364,0.412-0.364
		c0.141,0,0.258,0.07,0.375,0.152c0.307,0.235,0.705,0.471,1.223,0.471c0.6,0,0.894-0.271,0.894-0.635
		c0-0.482-0.446-0.646-1.069-0.857c-1.164-0.4-1.716-0.8-1.716-1.682c0-0.964,0.834-1.411,1.892-1.411
		c0.459,0,0.94,0.118,1.353,0.341c0.259,0.141,0.446,0.317,0.446,0.541c0,0.212-0.141,0.388-0.4,0.388
		c-0.129,0-0.234-0.047-0.353-0.105c-0.329-0.188-0.635-0.329-1.069-0.329c-0.529,0-0.882,0.188-0.882,0.587
		c0,0.388,0.306,0.517,1.082,0.8c1.069,0.388,1.704,0.729,1.704,1.657c0,0.881-0.658,1.504-1.904,1.504
		C71.491,37.167,70.951,36.896,70.504,36.543"/>
	<path fill="#00DB6E" d="M5.036,9.843c1.391,0,2.519-1.126,2.519-2.518c0-1.391-1.127-2.519-2.519-2.519S2.518,5.935,2.518,7.326
		C2.518,8.717,3.645,9.843,5.036,9.843 M75.72,26.391c-0.768-0.281-1.549,0.573-2.375,0.808c-0.911,0.266-1.98,0.236-3.029-0.216
		c-3.448-1.467-2.452-9.029-2.066-9.219c0.764-0.397,1.801-0.678,0.737-1.823c-0.377-0.403-0.849-0.714-1.327-0.982
		c-0.773-0.43-0.627-0.702-0.668-1.044c-0.124-1.009-2.354-0.559-2.848-0.206c-0.522,0.361-0.225,0.605-1.05,0.72
		c-0.645,0.088-1.198,0.121-1.788,0.304c-1.011,0.31-1.957,0.77-2.77,1.361c-1.658,1.206-2.67,2.564-3.223,4.534
		c-0.451,1.589-0.466,2.479-1.06,3.544c-1.049,1.937-3.246,2.848-5.945,2.835c2.387-2.967,5.267-8.105,0.499-11.237
		c-3.726-2.445-8.273-1.005-10.043,1.59c-2.106,3.103-1.037,7.465,2.41,10.351c0.912,0.769,1.56,0.865,0.784,1.761
		c-0.495,0.581-1.235,1.212-2.178,1.443c-1.895,0.476-4.104-0.801-4.909-2.626c-0.699-1.583-0.976-3.266-1.028-4.822
		c-0.077-1.866,0.982-4.122,1.563-6.079c1.055-3.582,2.299-8.412,1.144-12.601C36.149,3.34,35.42,1.44,33.856,0.502
		c-1.931-1.168-3.599-0.104-4.253,1.222c-1.233,2.493-1.476,7.629-1.385,10.61c0.014,0.31,0.02,0.619,0.035,0.933
		c-3.943-1.377-7.863-0.602-10.477,1.347c-1.152,0.86-1.944,1.881-2.539,3.185c-1,2.158-0.434,4.29-0.792,4.683
		c-1.528,1.652-4.598,5.83-7.875,4.295C2.749,25,3.744,20.62,4.262,18.262c0.295-1.412,0.617-2.831,0.578-4.357
		c-0.034-1.746-1.603-2.232-3.089-0.49c-1.956,2.295-2.075,6.262-1.318,9.66c0.752,3.365,3.404,6.657,7.278,7.04
		c3.939,0.393,6.638-1.756,8.749-4.055c4.699,5.229,11.451,3.123,14.525,0.017c0.328,2.561,1.634,6.066,4.409,7.772
		c2.911,1.794,6.786,0.767,8.615-0.831c0.812-0.696,1.552-1.651,2.284-2.409c0.665-0.672,1.783-0.446,2.902-0.446
		c3.049,0.022,5.77-1.505,7.066-3.441c2.754,4.113,8.665,2.414,10.275,0.136c1.602,2.187,3.657,3.338,6.032,3.173
		c1.229-0.085,2.805-1.158,3.254-2.246C76.015,27.305,76.137,26.598,75.72,26.391 M26.271,24.762
		c-1.375,0.789-5.249,1.95-6.954-0.26c-1.736-2.231,0.905-4.783,2.362-5.657c1.479-0.885,5.951-1.892,7.8,0.435
		C31.066,21.28,27.493,24.066,26.271,24.762 M33.405,7.95c-0.034,1.943-0.57,5.596-1.073,7.376
		c-0.324-2.455-0.215-6.935-0.033-9.278l0.059-0.803c0.053-0.767,0.088-2.477,0.518-2.438C33.314,2.854,33.435,6.724,33.405,7.95
		 M45.372,25.586c-0.324,0.398-0.332,0.738-1.029,0.377c-0.439-0.231-0.862-0.52-1.239-0.855c-0.886-0.787-1.451-1.809-1.653-2.813
		c-0.305-1.553,0.403-3.292,1.653-3.975c1.477-0.808,5.312-0.487,5.242,1.995C48.285,22.271,46.666,24.012,45.372,25.586
		 M63.827,24.145c-0.561,0.993-3.784,3.629-4.979,0.931c-0.895-2.021,0.267-4.293,1.352-5.542c0.658-0.763,1.517-1.335,2.57-1.63
		c1.468-0.417,2.069-0.125,2.069,1.317C64.826,20.982,64.625,22.716,63.827,24.145"/>
</g>
</svg>
