<?xml version="1.0" encoding="utf-8"?>
<!-- Generator: Adobe Illustrator 16.0.0, SVG Export Plug-In . SVG Version: 6.00 Build 0)  -->
<!DOCTYPE svg PUBLIC "-//W3C//DTD SVG 1.1//EN" "http://www.w3.org/Graphics/SVG/1.1/DTD/svg11.dtd">
<svg version="1.1" id="Layer_1" xmlns="http://www.w3.org/2000/svg" xmlns:xlink="http://www.w3.org/1999/xlink" x="0px" y="0px"
	 width="81.796px" height="40px" viewBox="0.001 0 81.796 40" enable-background="new 0.001 0 81.796 40" xml:space="preserve">
<g>
	<path fill="#FFFFFF" d="M59.245,38.09l1.052-3.478c0.062-0.203,0.176-0.355,0.443-0.355c0.302,0,0.517,0.165,0.517,0.469
		c0,0.076-0.024,0.164-0.036,0.202l-1.469,4.693c-0.064,0.177-0.19,0.328-0.454,0.328c-0.254,0-0.406-0.177-0.481-0.379
		l-1.253-3.479l-1.253,3.479c-0.074,0.202-0.227,0.379-0.479,0.379c-0.267,0-0.404-0.151-0.455-0.328l-1.468-4.693
		c-0.013-0.038-0.038-0.126-0.038-0.202c0-0.304,0.215-0.469,0.519-0.469c0.267,0,0.382,0.152,0.442,0.355l1.05,3.478l1.24-3.503
		c0.075-0.203,0.203-0.33,0.442-0.33c0.241,0,0.368,0.127,0.444,0.33L59.245,38.09z"/>
	<path fill="#FFFFFF" d="M61.446,37.105c0-1.557,1.001-2.898,2.657-2.898c1.658,0,2.657,1.343,2.657,2.898
		c0,1.554-0.999,2.896-2.657,2.896C62.447,40,61.446,38.659,61.446,37.105 M65.647,37.105c0-1.038-0.531-1.963-1.544-1.963
		s-1.543,0.924-1.543,1.963c0,1.036,0.53,1.96,1.543,1.96C65.331,39.065,65.647,38.141,65.647,37.105"/>
	<path fill="#FFFFFF" d="M67.886,34.257c0.317,0,0.558,0.24,0.558,0.559v0.656c0.164-0.759,0.734-1.213,1.417-1.213h0.023
		c0.317,0,0.559,0.177,0.559,0.507c0,0.315-0.241,0.529-0.569,0.529H69.86c-0.922,0-1.417,0.722-1.417,1.873v2.228
		c0,0.304-0.24,0.556-0.558,0.556c-0.314,0-0.556-0.252-0.556-0.556v-4.579C67.33,34.51,67.571,34.257,67.886,34.257"/>
	<path fill="#FFFFFF" d="M74.363,39.723l-1.707-2.491l-0.761,0.708v1.455c0,0.304-0.214,0.557-0.557,0.557
		c-0.33,0-0.557-0.253-0.557-0.557v-7.516c0-0.305,0.239-0.557,0.557-0.557c0.329,0,0.557,0.252,0.557,0.557v4.718l2.418-2.188
		c0.126-0.113,0.227-0.151,0.353-0.151c0.316,0,0.518,0.227,0.518,0.507c0,0.15-0.063,0.276-0.214,0.404l-1.567,1.403l1.771,2.531
		c0.076,0.101,0.126,0.201,0.126,0.34c0,0.267-0.188,0.507-0.529,0.507C74.578,39.952,74.465,39.862,74.363,39.723"/>
	<path fill="#FFFFFF" d="M75.882,39.33c-0.178-0.139-0.242-0.291-0.242-0.468c0-0.228,0.177-0.392,0.443-0.392
		c0.152,0,0.278,0.075,0.404,0.164c0.331,0.252,0.759,0.506,1.316,0.506c0.646,0,0.962-0.291,0.962-0.683
		c0-0.52-0.479-0.696-1.15-0.923c-1.252-0.43-1.848-0.86-1.848-1.811c0-1.037,0.898-1.519,2.037-1.519
		c0.494,0,1.012,0.128,1.457,0.367c0.277,0.152,0.479,0.342,0.479,0.582c0,0.229-0.151,0.419-0.432,0.419
		c-0.139,0-0.251-0.051-0.379-0.114c-0.354-0.201-0.684-0.353-1.151-0.353c-0.569,0-0.947,0.201-0.947,0.63
		c0,0.419,0.327,0.558,1.163,0.862c1.151,0.417,1.834,0.784,1.834,1.782c0,0.948-0.708,1.619-2.05,1.619
		C76.944,40.002,76.363,39.71,75.882,39.33"/>
	<path fill="#FFFFFF" d="M5.42,10.594c1.497,0,2.711-1.212,2.711-2.71c0-1.497-1.213-2.711-2.711-2.711
		c-1.499,0-2.71,1.215-2.71,2.712S3.923,10.594,5.42,10.594 M81.496,28.404c-0.827-0.303-1.668,0.617-2.556,0.869
		c-0.982,0.286-2.132,0.255-3.261-0.232c-3.711-1.578-2.641-9.717-2.224-9.922c0.821-0.427,1.938-0.729,0.792-1.962
		c-0.405-0.434-0.912-0.768-1.428-1.057c-0.832-0.463-0.674-0.756-0.719-1.124c-0.133-1.086-2.532-0.602-3.064-0.222
		c-0.562,0.389-0.243,0.651-1.131,0.775c-0.693,0.095-1.289,0.13-1.924,0.327c-1.089,0.334-2.106,0.829-2.981,1.465
		c-1.785,1.297-2.874,2.76-3.47,4.88c-0.485,1.709-0.5,2.668-1.141,3.813c-1.129,2.085-3.493,3.065-6.397,3.052
		c2.568-3.192,5.668-8.724,0.536-12.094c-4.01-2.631-8.903-1.082-10.809,1.711c-2.267,3.339-1.116,8.035,2.594,11.14
		c0.981,0.828,1.68,0.932,0.844,1.896c-0.533,0.625-1.329,1.305-2.345,1.554c-2.039,0.512-4.417-0.863-5.283-2.828
		c-0.752-1.702-1.05-3.515-1.107-5.189c-0.083-2.008,1.058-4.436,1.683-6.542c1.136-3.855,2.475-9.054,1.231-13.562
		c-0.432-1.558-1.216-3.603-2.9-4.612c-2.078-1.257-3.874-0.112-4.577,1.315c-1.327,2.683-1.588,8.211-1.491,11.419
		c0.015,0.333,0.021,0.666,0.038,1.004c-4.244-1.482-8.462-0.648-11.276,1.45c-1.24,0.926-2.092,2.025-2.733,3.428
		c-1.076,2.322-0.467,4.617-0.853,5.04c-1.644,1.778-4.948,6.274-8.476,4.622c-4.112-1.912-3.041-6.625-2.483-9.164
		c0.317-1.52,0.664-3.047,0.622-4.689c-0.036-1.879-1.726-2.402-3.325-0.527c-2.105,2.47-2.233,6.74-1.418,10.397
		C1.275,28.457,4.129,32,8.299,32.412c4.24,0.423,7.145-1.89,9.417-4.364c5.058,5.628,12.325,3.361,15.633,0.02
		c0.353,2.756,1.759,6.527,4.746,8.364c3.133,1.931,7.303,0.825,9.271-0.895c0.874-0.75,1.67-1.777,2.459-2.593
		c0.716-0.724,1.919-0.479,3.123-0.479c3.281,0.023,6.21-1.621,7.605-3.704c2.964,4.427,9.325,2.599,11.059,0.146
		c1.725,2.353,3.936,3.592,6.492,3.415c1.322-0.092,3.019-1.247,3.502-2.418C81.813,29.388,81.944,28.626,81.496,28.404
		 M28.275,26.651c-1.48,0.85-5.649,2.099-7.485-0.28c-1.868-2.401,0.975-5.147,2.542-6.088c1.592-0.953,6.405-2.037,8.395,0.468
		C33.436,22.903,29.59,25.902,28.275,26.651 M35.953,8.557c-0.036,2.091-0.613,6.022-1.155,7.938
		c-0.349-2.642-0.231-7.464-0.036-9.986l0.063-0.864c0.058-0.826,0.095-2.666,0.558-2.624C35.855,3.072,35.985,7.237,35.953,8.557
		 M48.833,27.537c-0.35,0.429-0.357,0.795-1.108,0.406c-0.472-0.248-0.928-0.56-1.333-0.92c-0.954-0.847-1.562-1.947-1.779-3.028
		c-0.327-1.671,0.434-3.542,1.779-4.277c1.59-0.869,5.717-0.524,5.642,2.147C51.968,23.969,50.226,25.843,48.833,27.537
		 M68.695,25.987c-0.604,1.068-4.072,3.905-5.359,1.002c-0.963-2.175,0.288-4.621,1.456-5.964c0.707-0.822,1.632-1.438,2.766-1.756
		c1.58-0.448,2.227-0.134,2.227,1.418C69.771,22.583,69.554,24.449,68.695,25.987"/>
</g>
</svg>
